<?xml version="1.0" encoding="UTF-8"?>
<svg width="577px" height="196px" viewBox="0 0 577 196" version="1.1" xmlns="http://www.w3.org/2000/svg" xmlns:xlink="http://www.w3.org/1999/xlink">
    <!-- Generator: Sketch 52.5 (67469) - http://www.bohemiancoding.com/sketch -->
    <title>Artboard</title>
    <desc>Created with Sketch.</desc>
    <g id="Page-1" stroke="none" stroke-width="1" fill="none" fill-rule="evenodd">
        <g id="Artboard" fill-rule="nonzero">
            <path d="M11,21 L29.8082745,21 L29.8082745,144.128177 L11,144.128177 L11,21 Z M111.82075,81.5784625 C119.030089,88.672967 122.679754,97.8287802 122.679754,108.775731 C122.679754,119.842757 118.990093,129.078621 111.730759,136.233164 C104.471425,143.3777 95.1222824,147 83.953307,147 C72.7743326,147 63.4351894,143.3777 56.1658563,136.233164 C48.8965233,129.078621 45.2168608,119.902795 45.2168608,108.945839 C45.2168608,97.9888818 48.9265205,88.8130559 56.2558481,81.6585133 C63.5751766,74.5139771 72.9543161,70.8916773 84.1232914,70.8916773 C95.2922668,70.8916773 104.611412,74.4839581 111.82075,81.5784625 Z M97.1120998,95.2371347 C93.6424181,91.6548602 89.2128245,89.8437103 83.953307,89.8437103 C78.6837905,89.8437103 74.2541969,91.6348475 70.7845152,95.1570839 C67.3148335,98.6793202 65.554995,103.272236 65.554995,108.775731 C65.554995,114.409307 67.3148335,119.082274 70.7945143,122.664549 C74.2541969,126.246823 78.743785,128.057973 84.1332905,128.057973 C89.392808,128.057973 93.7924044,126.246823 97.2020916,122.664549 C100.621778,119.082274 102.351619,114.469346 102.351619,108.945839 C102.351619,103.432338 100.591781,98.8194091 97.1220989,95.2271283 L97.1120998,95.2371347 Z M197.942849,81.5784625 C205.152188,88.672967 208.801853,97.8187738 208.801853,108.775731 C208.801853,119.842757 205.112192,129.078621 197.852858,136.233164 C190.593524,143.3777 181.244381,147 170.075406,147 C158.896432,147 149.557288,143.3777 142.287955,136.233164 C135.018622,129.078621 131.33896,119.902795 131.33896,108.945839 C131.33896,97.9888818 135.048619,88.8130559 142.377947,81.6585133 C149.697275,74.5139771 159.076415,70.8916773 170.24539,70.8916773 C181.414366,70.8916773 190.733511,74.4839581 197.942849,81.5784625 Z M183.234199,95.2371347 C179.764517,91.6548602 175.334923,89.8437103 170.075406,89.8437103 C164.805889,89.8437103 160.376296,91.6348475 156.906614,95.1570839 C153.436932,98.6793202 151.677094,103.272236 151.677094,108.775731 C151.677094,114.409307 153.436932,119.082274 156.906614,122.664549 C160.366297,126.246823 164.855885,128.057973 170.24539,128.057973 C175.504908,128.057973 179.904504,126.246823 183.314191,122.664549 C186.733878,119.082274 188.463719,114.459339 188.463719,108.945839 C188.463719,103.432338 186.70388,98.8194091 183.2242,95.2271283 L183.234199,95.2371347 Z M338,105.423602 L338,144.888659 L317.661866,144.888659 L317.661866,105.423602 C317.661866,100.590534 316.511971,96.7681067 314.232181,94.0463787 C311.962389,91.3346569 308.842675,90.0138183 304.713054,90.0138183 C300.493441,90.0138183 296.953766,91.4747459 294.194019,94.3565756 C291.414274,97.2484117 290.014402,100.970775 290.014402,105.433609 L290.014402,144.898666 L269.676268,144.898666 L269.676268,105.433609 C269.676268,100.840693 268.416384,97.0783037 265.916613,94.2364994 C263.44684,91.4347205 260.117145,90.0138183 256.02752,90.0138183 C251.577929,90.0138183 248.108247,91.3546696 245.688469,93.9863405 C243.258692,96.6380241 242.018806,100.49047 242.018806,105.433609 L242.018806,144.898666 L221.680671,144.898666 L221.680671,105.433609 C221.680671,94.7168043 224.710394,86.1913914 230.689845,80.0975222 C236.669296,73.9936468 245.01853,70.9016836 255.497569,70.9016836 C266.226585,70.9016836 274.515824,75.1443774 280.145308,83.5096887 C286.434731,75.1443774 295.223924,70.9016836 306.292909,70.9016836 C316.192001,70.9016836 324.041281,74.0036531 329.620769,80.1175349 C335.180259,86.2114041 337.990001,94.736817 337.990001,105.433609 L338,105.423602 Z" id="Path-2" fill="#FFFFFF"></path>
            <path d="M529.369644,175 L425.457001,101.84576 C418.278891,96.7930343 413.99002,88.5222041 414.000017,79.7200356 C414.010015,70.9278925 418.308883,62.6670875 425.496991,57.6243873 L450.630374,40 L554.543016,113.15424 C561.721127,118.206966 566,126.477796 566,135.269939 C565.990003,144.062082 561.691134,152.332913 554.503027,157.375613 L529.369644,175 Z M450.620376,51.7596168 L430.995543,65.5142581 C426.306777,68.8025397 423.607488,73.9855933 423.597491,79.7200356 C423.597491,85.4645032 426.276785,90.6475568 430.965551,93.9458637 L529.369644,163.220333 L548.994477,149.465691 C553.683243,146.17741 556.382532,140.994356 556.382532,135.249889 C556.392529,129.505421 553.703237,124.322367 549.014472,121.024061 L450.620376,51.7596168 Z" id="Path-3" fill="#4BC0C8"></path>
            <path d="M450.54875,165.21986 L430.965504,151.422848 C426.279512,148.1216 423.601803,142.933923 423.601803,137.184332 C423.601803,131.434741 426.299495,126.247064 430.985486,122.95585 L481.652142,87.3545414 L473.289296,81.4644715 L425.480196,115.058942 C418.296342,120.106139 414.000017,128.374312 414.000017,137.184332 C413.990026,145.994351 418.276359,154.262524 425.450222,159.319756 L450.538759,177 L481.57221,155.195704 L473.209364,149.2956 L450.54875,165.21986 Z M554.539787,59.690278 L529.45125,42 L498.387824,63.8243645 L506.75067,69.7244686 L529.45125,53.7801397 L549.034496,67.5771518 C553.720488,70.8784005 556.408188,76.066077 556.398197,81.8156682 C556.398197,87.5652594 553.700505,92.7529359 549.014514,96.0441504 L498.337867,131.645459 L506.700713,137.535528 L554.519804,103.941058 C561.703658,98.8938606 565.999983,90.6256875 565.999983,81.8156682 C566.009974,73.0156831 561.723641,64.7374758 554.549778,59.6802438 L554.539787,59.690278 Z M476.456586,90.9768842 L470.951296,83.069942 L431.455085,110.824513 L436.960375,118.721421 L476.456586,90.9768842 Z M543.918873,99.6163223 L524.675336,113.132377 L530.180626,121.039319 L550.153539,107.011521 C548.035351,104.583247 545.977112,102.094767 543.918873,99.6263565 L543.918873,99.6163223 Z" id="Path-4" fill="#02819B"></path>
        </g>
    </g>
</svg>