<?xml version="1.0" encoding="utf-8"?>
<!-- Generator: Adobe Illustrator 23.0.1, SVG Export Plug-In . SVG Version: 6.00 Build 0)  -->
<svg version="1.1" id="Layer_1" xmlns="http://www.w3.org/2000/svg" xmlns:xlink="http://www.w3.org/1999/xlink" x="0px" y="0px"
	 viewBox="0 0 204.4 71.58" style="enable-background:new 0 0 204.4 71.58;" xml:space="preserve">
<style type="text/css">
	.st0{fill:#FFFFFF;}
</style>
<g>
	<g>
		<path class="st0" d="M20.06,49.9c0-4.73-3.48-8.01-9.46-8.01H1.04v16.02h9.56C16.49,57.92,20.06,54.83,20.06,49.9z"/>
		<path class="st0" d="M9.15,14.57H1.04v14.77h8.3c5.31,0,8.78-2.8,8.78-7.43C18.13,17.47,15.13,14.57,9.15,14.57z"/>
		<path class="st0" d="M42.44,2.12V2.11H15.05c11.47,1.18,18.03,8.53,18.03,18.16c0,7.05-4.44,12.84-10.04,14.67
			c6.18,1.45,12.16,7.14,12.16,16.03c0,9.96-6.73,17.53-17.31,19.09c1.38,0.15,2.78,0.24,4.22,0.24c16.75,0,29.67-10.42,29.67-29.75
			V2.12H42.44z"/>
	</g>
	<g>
		<path class="st0" d="M83.94,1.92c5.92,0,9.34,3.42,9.34,8.03c0,3.09-1.94,5.62-4.4,6.42c2.71,0.63,5.33,3.13,5.33,7.02
			c0,4.9-3.72,8.5-9.38,8.5H72.74V1.92H83.94z M82.88,13.92c2.33,0,3.85-1.23,3.85-3.25c0-1.94-1.31-3.21-3.93-3.21h-3.55v6.47
			H82.88z M83.43,26.44c2.58,0,4.14-1.35,4.14-3.51c0-2.07-1.52-3.51-4.14-3.51h-4.18v7.02H83.43z"/>
		<path class="st0" d="M98.39,31.89V1.29h6.42v30.6H98.39z"/>
		<path class="st0" d="M131.27,21.36c0,6.51-4.86,11.16-11.16,11.16c-6.26,0-11.16-4.65-11.16-11.16s4.9-11.12,11.16-11.12
			C126.41,10.25,131.27,14.86,131.27,21.36z M124.85,21.36c0-3.55-2.28-5.2-4.73-5.2c-2.41,0-4.73,1.65-4.73,5.2
			c0,3.51,2.33,5.24,4.73,5.24C122.56,26.61,124.85,24.91,124.85,21.36z"/>
		<path class="st0" d="M140.27,21.41c0,3.34,2.24,5.2,4.9,5.2c2.49,0,3.89-1.56,4.35-3.13l5.66,1.73c-0.93,3.68-4.4,7.31-10.02,7.31
			c-6.26,0-11.29-4.61-11.29-11.12c0-6.55,4.9-11.16,11.07-11.16c5.79,0,9.17,3.55,10.1,7.31l-5.75,1.73
			c-0.46-1.61-1.73-3.13-4.23-3.13C142.42,16.16,140.27,18.02,140.27,21.41z"/>
		<path class="st0" d="M172.05,19.72l8.37,12.17h-7.86l-4.95-7.4l-2.07,2.24v5.16h-6.42V1.29h6.42v16.65l6.38-7.06h8.33
			L172.05,19.72z"/>
		<path class="st0" d="M72.48,58.63V39.49h6.68v18.6c0,3.64,2.03,5.45,5.2,5.45s5.2-1.82,5.2-5.45v-18.6h6.68v19.15
			c0,7.52-5.28,11.5-11.88,11.5S72.48,66.16,72.48,58.63z"/>
		<path class="st0" d="M108.28,69.45h-6.42V48.45h6.21v2.41c1.14-1.99,3.72-2.96,5.88-2.96c5.28,0,7.65,3.76,7.65,8.37v13.19h-6.42
			V57.36c0-2.07-1.1-3.64-3.42-3.64c-2.11,0-3.47,1.56-3.47,3.68V69.45z"/>
		<path class="st0" d="M130.17,38.26c2.11,0,3.8,1.69,3.8,3.76c0,2.07-1.69,3.76-3.8,3.76c-2.03,0-3.72-1.69-3.72-3.76
			C126.45,39.95,128.14,38.26,130.17,38.26z M127,69.45V48.45h6.42v21.01H127z"/>
		<path class="st0" d="M142.76,62.52c0.08,1.44,1.1,2.83,3.3,2.83c1.65,0,2.45-0.89,2.45-1.82c0-0.76-0.51-1.4-2.07-1.73l-2.41-0.55
			c-4.48-0.97-6.26-3.51-6.26-6.47c0-3.85,3.38-6.97,8.07-6.97c6.09,0,8.2,3.8,8.41,6.26l-5.33,0.97c-0.17-1.39-1.06-2.58-3-2.58
			c-1.23,0-2.28,0.72-2.28,1.82c0,0.89,0.72,1.39,1.65,1.56l2.79,0.55c4.35,0.89,6.47,3.51,6.47,6.59c0,3.59-2.75,7.1-8.37,7.1
			c-6.59,0-8.71-4.27-8.88-6.59L142.76,62.52z"/>
		<path class="st0" d="M179.49,58.93c0,6.51-4.86,11.16-11.16,11.16c-6.26,0-11.16-4.65-11.16-11.16s4.9-11.12,11.16-11.12
			C174.63,47.81,179.49,52.42,179.49,58.93z M173.06,58.93c0-3.55-2.28-5.2-4.73-5.2c-2.41,0-4.73,1.65-4.73,5.2
			c0,3.51,2.33,5.24,4.73,5.24C170.78,64.17,173.06,62.48,173.06,58.93z"/>
		<path class="st0" d="M190.05,69.45h-6.42V48.45h6.21v2.41c1.14-1.99,3.72-2.96,5.88-2.96c5.28,0,7.65,3.76,7.65,8.37v13.19h-6.42
			V57.36c0-2.07-1.1-3.64-3.42-3.64c-2.11,0-3.47,1.56-3.47,3.68V69.45z"/>
	</g>
</g>
</svg>
