<?xml version="1.0" encoding="utf-8"?>
<!-- Generator: Adobe Illustrator 17.0.0, SVG Export Plug-In . SVG Version: 6.00 Build 0)  -->
<!DOCTYPE svg PUBLIC "-//W3C//DTD SVG 1.1//EN" "http://www.w3.org/Graphics/SVG/1.1/DTD/svg11.dtd">
<svg version="1.1" id="Layer_2" xmlns="http://www.w3.org/2000/svg" xmlns:xlink="http://www.w3.org/1999/xlink" x="0px" y="0px"
	 width="300px" height="75.667px" viewBox="0 0 300 75.667" enable-background="new 0 0 300 75.667" xml:space="preserve">
<g>
	<path fill="#868686" d="M154.41,13.98L154.41,13.98l-10.064,0.402c-0.962,0-1.745,0.777-1.745,1.731
		c0,0.92,0.747,1.772,1.674,1.901l3.617,0.443l-0.071,1.831c-0.051,0.598,0.216,1.068,0.695,1.227l0.734,0.243
		c0.107,0.036,0.219,0.054,0.331,0.054c0.279,0,0.673-0.112,0.965-0.634l1.238-2.127l1.776,0.196
		c0.081,0.011,0.16,0.017,0.238,0.017c0.763,0,1.703-0.517,1.954-1.382c0.208-0.714,0.408-2.028,0.417-2.084l0.006-0.073
		C156.174,14.763,155.391,13.98,154.41,13.98z"/>
	<path fill="#1D1D1B" d="M163.671,62.27c-9.196,0-16.677-7.48-16.677-16.674s7.481-16.674,16.677-16.674
		c9.196,0,16.677,7.48,16.677,16.674S172.867,62.27,163.671,62.27z M163.671,32.281c-7.179,0-13.02,5.973-13.02,13.315
		s5.841,13.315,13.02,13.315c7.18,0,13.021-5.973,13.021-13.315S170.85,32.281,163.671,32.281z"/>
	<path fill="#1D1D1B" d="M110.055,62.27c-9.196,0-16.677-7.48-16.677-16.674s7.481-16.674,16.677-16.674
		c9.196,0,16.677,7.48,16.677,16.674S119.251,62.27,110.055,62.27z M110.055,32.281c-7.179,0-13.02,5.973-13.02,13.315
		s5.841,13.315,13.02,13.315c7.18,0,13.021-5.973,13.021-13.315S117.234,32.281,110.055,32.281z"/>
	<g>
		<path fill="#009540" d="M165.144,45.945l-0.34-2.02c-0.14-0.835-0.871-1.43-1.691-1.43c-0.093,0-0.188,0.008-0.284,0.024
			l-19.706,3.317l7.286-19.696c0.327-0.884-0.129-1.875-1.013-2.202l-1.921-0.711c-0.194-0.072-0.394-0.106-0.59-0.106
			c-0.697,0-1.357,0.429-1.612,1.119l-7.233,19.554l-15.932-24.816c-0.326-0.509-0.881-0.787-1.447-0.787
			c-0.317,0-0.637,0.087-0.922,0.27l-1.724,1.107c-0.793,0.509-1.026,1.575-0.516,2.368l25.816,40.212
			c0.326,0.509,0.881,0.787,1.447,0.787c0.317,0,0.637-0.087,0.922-0.27l1.724-1.107c0.793-0.509,1.026-1.575,0.516-2.368
			l-4.987-7.769l20.802-3.501C164.668,47.764,165.301,46.875,165.144,45.945z"/>
	</g>
	<path fill="#868686" d="M118.96,16.358c-0.136,0-0.274-0.02-0.411-0.061c-0.755-0.227-1.184-1.022-0.958-1.777
		c0.127-0.429,0.315-1.309,0.28-1.848c-0.004-0.053-0.092-0.232-0.144-0.338c-0.27-0.547-0.987-2.001,0.755-3.366
		c1.822-1.428,6.26-1.207,7.576-1.106c0.786,0.061,1.374,0.747,1.314,1.533c-0.06,0.786-0.735,1.381-1.533,1.315
		c-2.048-0.156-4.73-0.008-5.507,0.448c0.153,0.314,0.352,0.761,0.39,1.325c0.082,1.231-0.344,2.695-0.393,2.857
		C120.142,15.959,119.574,16.358,118.96,16.358z"/>
	<g>
		<g>
			<path fill-rule="evenodd" clip-rule="evenodd" d="M215.255,22.918c0.044,8.311,0.074,18.65,0.074,27.619
				c0,1.376-0.034,3.002,0.297,3.862c0.605,1.573,3.157,2.139,3.342,3.713c0.133,1.143-0.662,1.96-1.56,2.45
				c-2.784-0.038-4.633-1.009-5.791-2.673c-1.297-2.441-0.891-6.792-0.891-10.767c0-7.672,0-16.166,0-23.684
				C211.357,21.908,214.47,21.014,215.255,22.918z"/>
			<path fill-rule="evenodd" clip-rule="evenodd" d="M230.328,22.323c1.15-0.277,2.634,0.915,2.673,2.155
				c0.054,1.716-2.607,2.823-3.639,3.562c-0.607,0.435-1.293,0.93-2.079,1.486c-0.717,0.507-1.338,1.277-2.449,1.113
				c-0.627-0.091-1.455-0.766-1.486-1.559c-0.055-1.426,2.148-2.795,3.119-3.639c1.372-1.19,2.331-2.45,3.712-3.119
				C230.218,22.305,230.284,22.333,230.328,22.323z"/>
			<path fill-rule="evenodd" clip-rule="evenodd" d="M61.485,23.14c0.113,7.385,0.064,14.934,0.074,22.425
				c0.302,0.087,0.437-0.29,0.594-0.447c2.366-2.365,4.765-4.863,7.128-7.424c0.796-0.864,1.805-2.081,2.821-2.45
				c1.299-0.473,3.94-0.426,3.936,0.965c-0.003,0.723-1.576,2.052-2.153,2.673c-1.724,1.857-2.933,3.229-4.678,4.974
				c-0.755,0.755-2.061,1.732-2.079,2.748c-0.023,1.346,1.89,2.557,2.599,3.266c2.581,2.581,4.529,5.007,6.608,8.093
				c0.346,0.515,1.043,1.42,1.039,1.857c-0.009,1.228-2.05,1.615-3.711,1.262c-0.344-0.073-1.017-0.541-1.263-0.743
				c-0.955-0.779-1.629-2.12-2.45-3.191c-2.35-3.062-5.137-6.127-8.39-8.39c0,3.636,0,7.275,0,10.913
				c-0.451,0.495-0.668,1.127-1.263,1.337c-1.467,0.517-3.219-0.251-3.489-1.337c-0.289-1.152,0-3.104,0-4.456
				c0-9.922,0-21.289,0-30.887c0.506-0.934,1.651-1.901,3.044-1.782c0.441,0.038,0.587,0.238,0.891,0.372
				C61.039,23.048,61.176,23.064,61.485,23.14z"/>
			<path fill-rule="evenodd" clip-rule="evenodd" d="M87.62,23.807c0.175,8.722-0.264,18.466,0.075,27.473
				c0.052,1.377-0.176,2.751,0.149,3.787c0.265,0.852,0.909,1.423,1.708,1.93c0.64,0.409,1.604,1.037,1.706,1.932
				c0.124,1.078-0.766,2.229-1.634,2.45c-1.509,0.384-3.899-0.747-4.751-1.485c-2.474-2.138-1.932-7.217-1.932-12.104
				c0-7.367-0.214-16.362,0-23.387C83.364,22.555,86.894,21.87,87.62,23.807z"/>
			<path fill-rule="evenodd" clip-rule="evenodd" d="M262.552,23.586c2.089-0.254,4.02,1.192,3.49,3.86
				c-0.36,1.811-2.969,2.906-4.753,1.708C259.301,27.817,259.841,23.914,262.552,23.586z"/>
			<path fill-rule="evenodd" clip-rule="evenodd" d="M202.93,59.671c-5.013,1.082-13.612,2.026-17.448-0.742
				c-1.197-1.154-2.265-2.448-2.599-4.308c-1.664-9.228,7.38-11.311,15.444-9.578c0.548-5.59-2.785-7.975-8.39-7.201
				c-0.834,0.114-1.892,0.543-2.673,0.445c-0.921-0.116-1.73-1.166-1.633-2.228c0.171-1.885,2.806-2.135,4.603-2.302
				c6.865-0.637,11.105,1.215,12.4,6.385c0.45,1.799,0.297,3.999,0.297,6.385C202.93,50.847,203.14,55.391,202.93,59.671z
				 M187.635,51.504c-0.933,3.811,2.181,5.059,5.271,5.271c2.56,0.176,4.851,0.204,5.494-1.56c-0.042-2.111,0.089-4.393-0.074-6.385
				C194.462,47.654,188.493,47.995,187.635,51.504z"/>
			<path fill-rule="evenodd" clip-rule="evenodd" d="M246.439,33.757c2.243-0.249,8.169-0.387,8.465,2.153
				c0.154,1.322-0.811,2.275-1.708,2.451c-0.662,0.13-1.512-0.318-2.302-0.445c-6.658-1.075-10.024,3.284-10.023,9.43
				c0,3.365,1.033,6.251,3.193,7.796c1.59,1.135,4.333,1.826,7.202,1.41c0.855-0.124,1.822-0.586,2.599-0.445
				c1.852,0.335,1.92,3.023,0.445,3.86c-1.158,0.657-3.545,0.798-5.271,0.817c-4.968,0.051-8.569-1.684-10.692-4.753
				c-2.016-2.909-2.82-7.269-2.228-11.509c0.711-5.083,4.002-9.106,8.538-10.469C245.203,33.892,245.762,33.833,246.439,33.757z"/>
			<path fill-rule="evenodd" clip-rule="evenodd" d="M291.954,59.894c-6.353,0.825-15.685,2.163-18.859-2.525
				c-1.031-1.522-1.504-3.979-1.262-6.162c0.704-6.346,8.733-7.57,15.594-6.237c0.656-5.962-3.504-8.049-9.282-7.053
				c-0.62,0.108-1.235,0.437-1.782,0.371c-0.987-0.118-1.82-1.173-1.633-2.377c0.28-1.817,3.039-2.104,5.122-2.226
				c3.732-0.219,7.256,0.198,9.283,1.931c1.246,1.066,2.503,3.264,2.747,5.271c0.184,1.52,0.074,3.194,0.074,4.751
				C291.954,50.422,291.954,54.775,291.954,59.894z M281.93,48.237c-2.978,0.231-6.383,2.115-5.197,5.641
				c0.731,2.175,3.065,2.96,6.088,2.972c2.41,0.008,3.934-0.031,4.604-1.561c0-2.153,0-4.305,0-6.459
				C285.704,48.357,284.014,48.075,281.93,48.237z"/>
			<path fill-rule="evenodd" clip-rule="evenodd" d="M229.213,35.614c0,7.721,0,15.444,0,23.167
				c-0.544,0.989-1.476,1.591-3.266,1.336c-0.544-0.371-0.978-0.855-1.337-1.41c0-7.674,0-15.346,0-23.02
				C225.049,33.888,228.551,33.592,229.213,35.614z"/>
			<path fill-rule="evenodd" clip-rule="evenodd" d="M265.523,35.614c0,6.301,0,13.567,0,20.196c0,0.974,0.164,2.067,0,2.82
				c-0.438,1.991-4.223,1.983-4.753,0.151c0-7.722,0-15.446,0-23.167C261.197,33.817,264.914,33.642,265.523,35.614z"/>
			<path fill-rule="evenodd" clip-rule="evenodd" d="M6.465,50.167c0-1.385,0-2.771,0-4.157c0.625-4.797,3.076-8.367,6.236-10.099
				c1.657-0.907,3.917-1.41,6.758-1.41c2.305,0,5.703,0.273,5.865,2.302c0.089,1.11-0.824,2.267-1.781,2.376
				c-0.777,0.089-1.778-0.364-2.377-0.446c-7.114-0.967-9.834,3.606-9.8,9.876c0.035,6.28,4.202,9.709,10.617,8.687
				c0.636-0.101,1.699-0.529,2.376-0.372c0.949,0.223,1.666,1.281,1.485,2.6c-0.965,1.819-3.676,2.011-6.088,2.077
				C11.367,61.835,7.407,57.177,6.465,50.167z"/>
			<path fill-rule="evenodd" clip-rule="evenodd" d="M40.99,55.81c1.817-4.653,3.682-11.241,4.901-16.855
				c0.441-2.034,1.195-4.723,4.233-3.785c2.243,0.689,0.562,4.039,0.074,5.938c-1.202,4.673-2.47,8.776-4.084,12.996
				c-1.027,2.685-2.051,5.501-3.267,8.092c-1.388,2.957-3.105,5.618-5.642,7.202c-1.563,0.495-5.319,1.673-7.722,0.594
				c-0.602-0.27-1.22-0.931-1.263-1.634c-0.054-0.919,0.934-1.948,1.708-2.077c1.252-0.214,2.267,0.361,3.936,0
				c0.885-0.194,1.784-0.705,2.45-1.263c0.928-0.781,2.316-2.307,2.302-3.639c-0.011-0.969-0.699-2.167-1.188-3.119
				c-2.537-4.934-4.542-9.711-6.385-15.147c-0.531-1.56-1.046-3.095-1.56-4.9c-0.168-0.587-0.47-1.267-0.445-1.631
				c0.068-1.04,1.777-2.009,3.564-1.411c1.403,0.468,1.588,2.12,2.078,3.785C36.365,44.672,38.645,50.957,40.99,55.81z"/>
		</g>
	</g>
</g>
</svg>
