<?xml version="1.0" encoding="utf-8"?>
<!-- Generator: Adobe Illustrator 16.0.4, SVG Export Plug-In . SVG Version: 6.00 Build 0)  -->
<!DOCTYPE svg PUBLIC "-//W3C//DTD SVG 1.1//EN" "http://www.w3.org/Graphics/SVG/1.1/DTD/svg11.dtd">
<svg version="1.1" id="Layer_1" xmlns="http://www.w3.org/2000/svg" xmlns:xlink="http://www.w3.org/1999/xlink" x="0px" y="0px"
	 width="98.717px" height="17.126px" viewBox="0 0 98.717 17.126" enable-background="new 0 0 98.717 17.126" xml:space="preserve">
<path fill="#FFFFFF" d="M32.985,5.359c0-2.125-1.521-3.767-3.905-3.767h-5.355v12.25h2.402V9.126h1.813l2.401,4.717h2.661
	l-2.626-5.01C31.983,8.366,32.985,7.07,32.985,5.359 M28.631,7.07h-2.504V3.666h2.504c1.209,0,1.917,0.674,1.917,1.71
	C30.549,6.378,29.841,7.07,28.631,7.07"/>
<path fill="#FFFFFF" d="M48.071,5.152c-1.278,0-2.229,0.57-2.609,1.227V5.342h-2.229v11.784h2.298v-4.112
	c0.415,0.57,1.279,1.037,2.454,1.037c2.402,0,4.008-1.901,4.008-4.476C51.993,7.053,50.559,5.152,48.071,5.152 M47.622,11.994
	c-1.175,0-2.125-0.898-2.125-2.401c0-1.503,0.95-2.385,2.125-2.385s2.108,0.881,2.108,2.385
	C49.729,11.113,48.796,11.994,47.622,11.994"/>
<path fill="#FFFFFF" d="M55.269,6.603V5.342H53.04v8.501h2.299V9.955c0-1.831,1.02-2.402,2.194-2.402
	c0.207,0,0.432,0.018,0.691,0.069V5.308c-0.174-0.018-0.347-0.035-0.536-0.035C56.962,5.273,55.788,5.48,55.269,6.603"/>
<path fill="#FFFFFF" d="M89.369,5.117c-0.915,0-1.935,0.397-2.453,1.279V5.342h-2.229v8.501h2.298v-4.89
	c0-0.985,0.587-1.763,1.59-1.763c1.105,0,1.572,0.743,1.572,1.694v4.958h2.298V8.487C92.445,6.621,91.477,5.117,89.369,5.117"/>
<path fill="#FFFFFF" d="M97.007,2.802h-2.073v1.192c0,0.76-0.415,1.348-1.313,1.348h-0.433v2.039h1.538v3.957
	c0,1.641,1.037,2.626,2.695,2.626c0.674,0,1.089-0.121,1.296-0.207v-1.901c-0.12,0.035-0.432,0.069-0.708,0.069
	c-0.657,0-1.002-0.241-1.002-0.984v-3.56h1.71V5.342h-1.71V2.802z"/>
<path fill="#FFFFFF" d="M37.755,5.083c-2.177,0-4.181,1.762-4.181,4.475c0,2.869,2.056,4.558,4.389,4.544
	c1.945-0.01,3.42-1.272,3.848-2.722h-2.185c-0.333,0.458-0.855,0.752-1.645,0.752c-1.141,0-2.091-0.812-2.143-1.935h6.082
	c0-0.035,0.035-0.38,0.035-0.708C41.954,6.759,40.381,5.083,37.755,5.083 M35.889,8.625c0.052-0.778,0.708-1.676,1.901-1.676
	c1.312,0,1.865,0.83,1.9,1.676H35.889z"/>
<path fill="#FFFFFF" d="M62.825,5.083c-2.177,0-4.182,1.762-4.182,4.475c0,2.869,2.057,4.558,4.389,4.544
	c1.946-0.01,3.421-1.272,3.849-2.722h-2.186c-0.333,0.458-0.855,0.752-1.646,0.752c-1.141,0-2.091-0.812-2.143-1.935h6.082
	c0-0.035,0.035-0.38,0.035-0.708C67.024,6.759,65.451,5.083,62.825,5.083 M60.958,8.625c0.052-0.778,0.709-1.676,1.901-1.676
	c1.312,0,1.865,0.83,1.9,1.676H60.958z"/>
<path fill="#FFFFFF" d="M79.542,5.083c-2.177,0-4.182,1.762-4.182,4.475c0,2.869,2.057,4.558,4.389,4.544
	c1.945-0.01,3.421-1.272,3.848-2.722h-2.185c-0.333,0.458-0.855,0.752-1.646,0.752c-1.141,0-2.091-0.812-2.143-1.935h6.082
	c0-0.035,0.034-0.38,0.034-0.708C83.741,6.759,82.168,5.083,79.542,5.083 M77.676,8.625c0.052-0.778,0.709-1.676,1.9-1.676
	c1.313,0,1.866,0.83,1.901,1.676H77.676z"/>
<path fill="#FFFFFF" d="M72.176,8.694l-1.21-0.259c-0.466-0.086-0.777-0.345-0.777-0.76c0-0.484,0.483-0.847,1.089-0.847
	c0.801,0,1.187,0.438,1.335,0.873h1.993c-0.002-0.043-0.006-0.095-0.011-0.164c-0.104-0.916-0.916-2.454-3.335-2.454
	c-1.831,0-3.18,1.261-3.18,2.782c0,1.192,0.743,2.177,2.385,2.54l1.123,0.259c0.657,0.139,0.916,0.449,0.916,0.83
	c0,0.449-0.363,0.847-1.123,0.847c-0.831,0-1.312-0.43-1.483-0.96h-2.053c0.004,0.027,0.007,0.059,0.011,0.097
	c0.104,0.967,0.985,2.626,3.543,2.626c2.229,0,3.3-1.417,3.3-2.8C74.699,10.059,73.852,9.04,72.176,8.694"/>
<path fill="#FFFFFF" d="M9.012,11.616l0.053,0.011l-0.42-2.262L8.593,9.354C5.68,8.717,2.656,9.086,0,10.367v2.471
	C2.754,11.388,5.945,10.945,9.012,11.616"/>
<path fill="#FFFFFF" d="M8.173,7.092l0.052,0.011l-0.42-2.262L7.753,4.83C5.144,4.259,2.444,4.494,0,5.47v2.442
	C2.552,6.789,5.413,6.488,8.173,7.092"/>
<path fill="#FFFFFF" d="M7.334,2.567l0.052,0.012L6.967,0.317L6.915,0.306C4.599-0.201,2.215-0.07,0,0.646v2.405
	C2.332,2.21,4.872,2.029,7.334,2.567"/>
<path fill="#FFFFFF" d="M9.123,11.64l-0.058-0.013l0.419,2.263l0.058,0.013c2.313,0.506,4.696,0.375,6.909-0.341v-2.405
	C14.122,11.997,11.583,12.178,9.123,11.64"/>
<path fill="#FFFFFF" d="M8.283,7.116L8.226,7.103l0.419,2.262l0.058,0.013c2.608,0.57,5.306,0.335,7.748-0.64V6.296
	C13.9,7.418,11.042,7.719,8.283,7.116"/>
<path fill="#FFFFFF" d="M7.444,2.592L7.386,2.579l0.419,2.262l0.058,0.013c2.911,0.637,5.933,0.267,8.587-1.014V1.369
	C13.699,2.819,10.51,3.262,7.444,2.592"/>
</svg>
