<svg width="181" height="40" viewBox="0 0 181 40" fill="none" xmlns="http://www.w3.org/2000/svg">
<path d="M43.56 15.504H46.2V17.88C46.248 17.896 46.296 17.912 46.344 17.928C46.712 18.088 47.112 18.224 47.544 18.336C47.992 18.432 48.464 18.48 48.96 18.48C49.856 18.48 50.552 18.304 51.048 17.952C51.544 17.584 51.792 17.096 51.792 16.488C51.792 15.944 51.584 15.504 51.168 15.168C50.768 14.832 50.264 14.536 49.656 14.28C49.064 14.024 48.408 13.768 47.688 13.512C46.984 13.256 46.328 12.936 45.72 12.552C45.128 12.152 44.624 11.656 44.208 11.064C43.808 10.472 43.608 9.704 43.608 8.76C43.608 8.04 43.744 7.384 44.016 6.792C44.304 6.184 44.696 5.664 45.192 5.232C45.704 4.8 46.312 4.464 47.016 4.224C47.72 3.984 48.504 3.864 49.368 3.864C50.344 3.864 51.304 3.952 52.248 4.128C53.192 4.304 53.944 4.544 54.504 4.848V9.72H51.864V7.056C51.816 7.056 51.768 7.048 51.72 7.032C51.368 6.936 50.984 6.864 50.568 6.816C50.168 6.752 49.768 6.72 49.368 6.72C48.6 6.72 47.992 6.872 47.544 7.176C47.112 7.48 46.896 7.888 46.896 8.4C46.896 8.928 47.096 9.36 47.496 9.696C47.912 10.032 48.416 10.336 49.008 10.608C49.616 10.88 50.272 11.152 50.976 11.424C51.696 11.696 52.352 12.032 52.944 12.432C53.552 12.816 54.056 13.304 54.456 13.896C54.872 14.488 55.08 15.232 55.08 16.128C55.08 16.992 54.92 17.752 54.6 18.408C54.28 19.048 53.832 19.592 53.256 20.04C52.68 20.472 52 20.792 51.216 21C50.432 21.224 49.584 21.336 48.672 21.336C48.064 21.336 47.496 21.288 46.968 21.192C46.456 21.096 45.976 20.976 45.528 20.832C45.096 20.688 44.712 20.536 44.376 20.376C44.04 20.216 43.768 20.08 43.56 19.968V15.504ZM66.9506 4.2H70.0706V14.952C70.0706 16.04 69.9266 16.984 69.6386 17.784C69.3506 18.568 68.9426 19.224 68.4146 19.752C67.9026 20.264 67.2866 20.648 66.5666 20.904C65.8466 21.16 65.0546 21.288 64.1906 21.288C62.1106 21.288 60.5666 20.784 59.5586 19.776C58.5666 18.768 58.0706 17.296 58.0706 15.36V4.2H61.3586V14.712C61.3586 15.992 61.5906 16.92 62.0546 17.496C62.5186 18.072 63.2466 18.36 64.2386 18.36C65.1986 18.36 65.8866 18.056 66.3026 17.448C66.7346 16.824 66.9506 15.912 66.9506 14.712V4.2ZM84.5333 8.112C84.5333 8.528 84.4773 8.944 84.3652 9.36C84.2692 9.776 84.1012 10.16 83.8612 10.512C83.6212 10.848 83.3092 11.152 82.9252 11.424C82.5412 11.68 82.0772 11.872 81.5332 12V12.144C82.0132 12.224 82.4692 12.36 82.9012 12.552C83.3332 12.744 83.7092 13.008 84.0292 13.344C84.3492 13.68 84.5972 14.088 84.7733 14.568C84.9652 15.048 85.0612 15.616 85.0612 16.272C85.0612 17.136 84.8772 17.888 84.5092 18.528C84.1412 19.152 83.6452 19.664 83.0212 20.064C82.4132 20.464 81.7172 20.76 80.9332 20.952C80.1492 21.144 79.3412 21.24 78.5092 21.24C78.2372 21.24 77.8852 21.24 77.4532 21.24C77.0372 21.24 76.5812 21.224 76.0852 21.192C75.6052 21.176 75.1092 21.144 74.5972 21.096C74.1012 21.048 73.6452 20.976 73.2292 20.88V4.32C73.5332 4.272 73.8772 4.224 74.2612 4.176C74.6612 4.128 75.0852 4.088 75.5332 4.056C75.9812 4.024 76.4372 4 76.9012 3.984C77.3812 3.968 77.8532 3.96 78.3172 3.96C79.1012 3.96 79.8612 4.024 80.5972 4.152C81.3492 4.264 82.0132 4.472 82.5892 4.776C83.1812 5.08 83.6532 5.504 84.0052 6.048C84.3573 6.592 84.5333 7.28 84.5333 8.112ZM78.5332 18.528C78.9332 18.528 79.3172 18.48 79.6852 18.384C80.0692 18.288 80.4052 18.144 80.6932 17.952C80.9812 17.744 81.2132 17.488 81.3892 17.184C81.5652 16.88 81.6532 16.52 81.6532 16.104C81.6532 15.576 81.5492 15.16 81.3412 14.856C81.1332 14.552 80.8612 14.32 80.5252 14.16C80.1892 13.984 79.8132 13.872 79.3972 13.824C78.9812 13.776 78.5652 13.752 78.1492 13.752H76.3972V18.384C76.4772 18.416 76.6052 18.44 76.7812 18.456C76.9572 18.472 77.1412 18.488 77.3332 18.504C77.5412 18.504 77.7492 18.512 77.9572 18.528C78.1812 18.528 78.3732 18.528 78.5332 18.528ZM77.4532 11.256C77.6772 11.256 77.9332 11.248 78.2212 11.232C78.5252 11.216 78.7732 11.192 78.9652 11.16C79.5732 10.968 80.0932 10.68 80.5252 10.296C80.9732 9.912 81.1972 9.408 81.1972 8.784C81.1972 8.368 81.1172 8.024 80.9572 7.752C80.7972 7.48 80.5812 7.264 80.3092 7.104C80.0532 6.944 79.7572 6.832 79.4212 6.768C79.0852 6.704 78.7332 6.672 78.3652 6.672C77.9492 6.672 77.5652 6.68 77.2132 6.696C76.8612 6.712 76.5892 6.736 76.3972 6.768V11.256H77.4532ZM88.1719 15.504H90.8119V17.88C90.8599 17.896 90.9079 17.912 90.9559 17.928C91.3239 18.088 91.7239 18.224 92.1559 18.336C92.6039 18.432 93.0759 18.48 93.5719 18.48C94.4679 18.48 95.1639 18.304 95.6599 17.952C96.1559 17.584 96.4039 17.096 96.4039 16.488C96.4039 15.944 96.1959 15.504 95.7799 15.168C95.3799 14.832 94.8759 14.536 94.2679 14.28C93.6759 14.024 93.0199 13.768 92.2999 13.512C91.5959 13.256 90.9399 12.936 90.3319 12.552C89.7399 12.152 89.2359 11.656 88.8199 11.064C88.4199 10.472 88.2199 9.704 88.2199 8.76C88.2199 8.04 88.3559 7.384 88.6279 6.792C88.9159 6.184 89.3079 5.664 89.8039 5.232C90.3159 4.8 90.9239 4.464 91.6279 4.224C92.3319 3.984 93.1159 3.864 93.9799 3.864C94.9559 3.864 95.9159 3.952 96.8599 4.128C97.8039 4.304 98.5559 4.544 99.1159 4.848V9.72H96.4759V7.056C96.4279 7.056 96.3799 7.048 96.3319 7.032C95.9799 6.936 95.5959 6.864 95.1799 6.816C94.7799 6.752 94.3799 6.72 93.9799 6.72C93.2119 6.72 92.6039 6.872 92.1559 7.176C91.7239 7.48 91.5079 7.888 91.5079 8.4C91.5079 8.928 91.7079 9.36 92.1079 9.696C92.5239 10.032 93.0279 10.336 93.6199 10.608C94.2279 10.88 94.8839 11.152 95.5879 11.424C96.3079 11.696 96.9639 12.032 97.5559 12.432C98.1639 12.816 98.6679 13.304 99.0679 13.896C99.4839 14.488 99.6919 15.232 99.6919 16.128C99.6919 16.992 99.5319 17.752 99.2119 18.408C98.8919 19.048 98.4439 19.592 97.8679 20.04C97.2919 20.472 96.6119 20.792 95.8279 21C95.0439 21.224 94.1959 21.336 93.2839 21.336C92.6759 21.336 92.1079 21.288 91.5799 21.192C91.0679 21.096 90.5879 20.976 90.1399 20.832C89.7079 20.688 89.3239 20.536 88.9879 20.376C88.6519 20.216 88.3799 20.08 88.1719 19.968V15.504ZM104.314 18.36H107.05V6.84H104.746V9.744H102.106V4.2H115.258V9.744H112.618V6.84H110.338V18.36H113.05V21H104.314V18.36ZM117.841 4.368C118.209 4.304 118.601 4.248 119.017 4.2C119.449 4.136 119.873 4.088 120.289 4.056C120.721 4.024 121.137 4 121.537 3.984C121.937 3.968 122.305 3.96 122.641 3.96C123.425 3.96 124.193 4.04 124.945 4.2C125.713 4.344 126.393 4.6 126.985 4.968C127.593 5.336 128.073 5.832 128.425 6.456C128.793 7.08 128.977 7.856 128.977 8.784C128.977 9.472 128.905 10.072 128.761 10.584C128.633 11.08 128.449 11.52 128.209 11.904C127.969 12.288 127.673 12.624 127.321 12.912C126.985 13.184 126.617 13.432 126.217 13.656L130.273 21H126.481L123.097 14.424H121.129V21H117.841V4.368ZM122.881 6.888C122.545 6.888 122.209 6.896 121.873 6.912C121.553 6.928 121.305 6.96 121.129 7.008V11.88H122.425C123.337 11.88 124.081 11.672 124.657 11.256C125.233 10.84 125.521 10.152 125.521 9.192C125.521 8.472 125.297 7.912 124.849 7.512C124.401 7.096 123.745 6.888 122.881 6.888ZM140.824 17.28H135.808L134.656 21H131.368L136.792 4.2H140.08L145.48 21H142.024L140.824 17.28ZM136.576 14.64H140.176L138.472 9.024H138.256L136.576 14.64ZM148.926 18.36H151.662V6.84H149.358V9.744H146.718V4.2H159.87V9.744H157.23V6.84H154.95V18.36H157.662V21H148.926V18.36ZM162.645 4.2H173.661V7.128H165.933V11.04H173.061V13.968H165.933V18.072H173.781V21H162.645V4.2Z" fill="white"/>
<path d="M50.476 32.36L50.596 31.1H50.536L50.08 32.252L47.896 36.044H47.596L45.28 32.24L44.848 31.1H44.788L44.956 32.348V38H44.02V29.6H44.764L47.392 33.896L47.788 34.832H47.812L48.184 33.872L50.692 29.6H51.472V38H50.476V32.36ZM63.0282 35.672H59.9322L59.0922 38H58.1082L61.2882 29.468H61.7442L64.9362 38H63.8922L63.0282 35.672ZM60.2562 34.808H62.7282L61.7922 32.252L61.4922 30.98H61.4802L61.1802 32.276L60.2562 34.808ZM71.5717 29.684C71.8757 29.628 72.2237 29.584 72.6157 29.552C73.0157 29.52 73.3797 29.504 73.7077 29.504C74.0757 29.504 74.4237 29.544 74.7517 29.624C75.0877 29.704 75.3797 29.836 75.6277 30.02C75.8837 30.204 76.0877 30.444 76.2397 30.74C76.3917 31.036 76.4677 31.396 76.4677 31.82C76.4677 32.476 76.2877 33.008 75.9277 33.416C75.5677 33.824 75.1117 34.096 74.5597 34.232L75.1357 34.676L77.2237 38H76.0597L73.7437 34.376L72.5677 34.196V38H71.5717V29.684ZM73.7317 30.368C73.6277 30.368 73.5197 30.368 73.4077 30.368C73.2957 30.368 73.1877 30.372 73.0837 30.38C72.9797 30.388 72.8797 30.396 72.7837 30.404C72.6957 30.412 72.6237 30.424 72.5677 30.44V33.536H73.5037C74.0557 33.536 74.5117 33.4 74.8717 33.128C75.2317 32.856 75.4117 32.432 75.4117 31.856C75.4117 31.424 75.2637 31.068 74.9677 30.788C74.6717 30.508 74.2597 30.368 73.7317 30.368ZM85.7884 34.112H85.2244V38H84.2284V29.6H85.2244V33.512L85.7644 33.344L88.5844 29.6H89.7364L86.9284 33.212L86.4244 33.608L87.0364 34.088L90.1084 38H88.8484L85.7884 34.112ZM97.0727 29.6H101.645V30.488H98.0687V33.236H101.345V34.124H98.0687V37.112H101.705V38H97.0727V29.6ZM114.45 30.488H111.834V38H110.838V30.488H108.222V29.6H114.45V30.488ZM121.203 29.684C121.507 29.612 121.835 29.564 122.187 29.54C122.539 29.516 122.887 29.504 123.231 29.504C123.599 29.504 123.971 29.54 124.347 29.612C124.731 29.684 125.079 29.816 125.391 30.008C125.703 30.2 125.955 30.464 126.147 30.8C126.347 31.136 126.447 31.564 126.447 32.084C126.447 32.596 126.355 33.028 126.171 33.38C125.987 33.732 125.743 34.02 125.439 34.244C125.135 34.46 124.787 34.616 124.395 34.712C124.003 34.808 123.599 34.856 123.183 34.856C123.143 34.856 123.075 34.856 122.979 34.856C122.891 34.856 122.795 34.856 122.691 34.856C122.595 34.848 122.499 34.84 122.403 34.832C122.307 34.824 122.239 34.816 122.199 34.808V38H121.203V29.684ZM123.255 30.368C123.047 30.368 122.847 30.372 122.655 30.38C122.463 30.388 122.311 30.408 122.199 30.44V33.92C122.239 33.936 122.303 33.948 122.391 33.956C122.479 33.956 122.571 33.96 122.667 33.968C122.763 33.968 122.855 33.968 122.943 33.968C123.031 33.968 123.095 33.968 123.135 33.968C123.407 33.968 123.675 33.944 123.939 33.896C124.211 33.84 124.455 33.744 124.671 33.608C124.887 33.472 125.059 33.28 125.187 33.032C125.323 32.784 125.391 32.468 125.391 32.084C125.391 31.756 125.327 31.484 125.199 31.268C125.079 31.044 124.915 30.868 124.707 30.74C124.507 30.604 124.279 30.508 124.023 30.452C123.767 30.396 123.511 30.368 123.255 30.368ZM138.394 38H133.426V29.6H134.422V37.112H138.394V38ZM148.239 35.672H145.143L144.303 38H143.319L146.499 29.468H146.955L150.147 38H149.103L148.239 35.672ZM145.467 34.808H147.939L147.003 32.252L146.703 30.98H146.691L146.391 32.276L145.467 34.808ZM161.853 37.652C161.613 37.836 161.309 37.964 160.941 38.036C160.573 38.108 160.181 38.144 159.765 38.144C159.261 38.144 158.789 38.06 158.349 37.892C157.909 37.716 157.525 37.452 157.197 37.1C156.869 36.748 156.609 36.3 156.417 35.756C156.225 35.204 156.129 34.552 156.129 33.8C156.129 33.016 156.233 32.352 156.441 31.808C156.657 31.256 156.937 30.808 157.281 30.464C157.633 30.112 158.025 29.856 158.457 29.696C158.889 29.536 159.329 29.456 159.777 29.456C160.257 29.456 160.649 29.484 160.953 29.54C161.257 29.588 161.517 29.656 161.733 29.744L161.493 30.62C161.109 30.436 160.561 30.344 159.849 30.344C159.521 30.344 159.197 30.404 158.877 30.524C158.557 30.644 158.269 30.84 158.013 31.112C157.765 31.384 157.565 31.74 157.413 32.18C157.261 32.62 157.185 33.16 157.185 33.8C157.185 34.376 157.257 34.88 157.401 35.312C157.545 35.744 157.741 36.104 157.989 36.392C158.245 36.68 158.541 36.896 158.877 37.04C159.221 37.184 159.593 37.256 159.993 37.256C160.353 37.256 160.665 37.22 160.929 37.148C161.201 37.076 161.429 36.984 161.613 36.872L161.853 37.652ZM168.853 29.6H173.425V30.488H169.849V33.236H173.125V34.124H169.849V37.112H173.485V38H168.853V29.6Z" fill="white" fill-opacity="0.6"/>
<path d="M38.5718 4.65363C39.1314 4.00571 38.6711 3 37.815 3H32.0589C30.8964 3 29.7914 3.50571 29.0316 4.38548L1.42818 36.3464C0.868591 36.9943 1.32888 38 2.18499 38H7.94114C9.10361 38 10.2086 37.4943 10.9684 36.6145L38.5718 4.65363Z" fill="#EC3A66"/>
<path d="M33.8916 21.7243C34.1458 21.4238 33.9244 20.973 33.5227 20.973H30.776C30.204 20.973 29.6623 21.2212 29.3004 21.6491L16.1084 37.2486C15.8542 37.5492 16.0756 38 16.4773 38H19.224C19.796 38 20.3377 37.7518 20.6996 37.3238L33.8916 21.7243Z" fill="white"/>
</svg>
