<?xml version="1.0" encoding="UTF-8" standalone="no"?>
<!-- Created with Inkscape (http://www.inkscape.org/) -->

<svg
   xmlns:dc="http://purl.org/dc/elements/1.1/"
   xmlns:cc="http://creativecommons.org/ns#"
   xmlns:rdf="http://www.w3.org/1999/02/22-rdf-syntax-ns#"
   xmlns:svg="http://www.w3.org/2000/svg"
   xmlns="http://www.w3.org/2000/svg"
   xmlns:sodipodi="http://sodipodi.sourceforge.net/DTD/sodipodi-0.dtd"
   xmlns:inkscape="http://www.inkscape.org/namespaces/inkscape"
   width="744.09448819"
   height="1052.3622047"
   id="svg3077"
   version="1.1"
   inkscape:version="0.48.5 r10040"
   sodipodi:docname="WhiteBikes_Logo.svg">
  <defs
     id="defs3079" />
  <sodipodi:namedview
     id="base"
     pagecolor="#ffffff"
     bordercolor="#666666"
     borderopacity="1.0"
     inkscape:pageopacity="0.0"
     inkscape:pageshadow="2"
     inkscape:zoom="0.49497475"
     inkscape:cx="490.01734"
     inkscape:cy="500.78142"
     inkscape:document-units="px"
     inkscape:current-layer="g3140"
     showgrid="false"
     showborder="false"
     inkscape:showpageshadow="false"
     inkscape:window-width="1920"
     inkscape:window-height="1028"
     inkscape:window-x="-8"
     inkscape:window-y="-8"
     inkscape:window-maximized="1" />
  <metadata
     id="metadata3082">
    <rdf:RDF>
      <cc:Work
         rdf:about="">
        <dc:format>image/svg+xml</dc:format>
        <dc:type
           rdf:resource="http://purl.org/dc/dcmitype/StillImage" />
        <dc:title></dc:title>
      </cc:Work>
    </rdf:RDF>
  </metadata>
  <g
     inkscape:label="Vrstva 1"
     inkscape:groupmode="layer"
     id="layer1">
    <g
       id="g3140"
       transform="matrix(0.93734618,0,0,0.93804879,56.02767,-10.722575)"
       inkscape:export-filename="C:\Users\Jan\Biele bicykle\LOGO\Logo_BLACK\WhiteBikes_Logo.png"
       inkscape:export-xdpi="90"
       inkscape:export-ydpi="90">
      <g
         id="g4425">
        <path
           inkscape:connector-curvature="0"
           id="path7705"
           d="m 533.79603,26.575884 c -1.0495,0.1612 -2.0965,0.3166 -3.125,0.5625 l -142.625,27.8437 c -12.1349,1.7337 -21.3633,14.6799 -19.0625,26.7188 2.3002,12.0407 15.6436,20.767796 27.5625,17.9062 l 96.625,-18.75 -19.625,37.781296 c -2.8706,5.4447 -3.3826,12.0785 -1.4062,17.9062 l 21.0312,62.7813 15.375,45.4687 6.5312,19.625 c 14.3149,-5.5858 29.038,-9.8959 43.75,-12.8125 l -40.3437,-120.4687 36.6563,-71.312496 c 3.6972,-7.0633 3.1705,-16.0067 -1.125,-22.7188 -4.3043,-6.7124 -12.2239,-10.9424 -20.1876,-10.5312 l -0.031,0 z m -544.375002,64.25 a 22.732886,22.732886 0 0 0 -17.34375,35.218696 l 28.71874962,43.1875 a 22.732886,22.732886 0 0 0 21.87500038,9.9375 l 33.53125,-4.25 36.375,105.9688 c -11.38,-1.4205 -22.87135,-1.9961 -34.40625,-1.6875 -36.6535,0.9797 -73.42465,10.7869 -107.40625,30.4062 -108.734598,62.7772 -145.997748,201.5127 -83.218748,310.25 43.062498,74.5831 121.845048,115.5503 202.281248,113.6563 36.562702,-0.8507 73.460452,-10.4135 107.406252,-29.8438 0.2567,-0.164 0.60105,-0.3904 0.84375,-0.5312 l 347.78125,-200.9063 15.9063,27.5625 21.625,-80.6875 -80.7188,-21.5937 15.9062,27.5625 -29.5312,17.0625 -190.65625,109.9375 -124.75,72.1875 c -0.9524,0.5595 -1.8437,1.1293 -2.8125,1.6875 -0.257,0.1612 -0.6328,0.1757 -0.875,0.2812 -82.526202,47.1112 -187.680402,18.7325 -235.250002,-63.6562 -47.711898,-82.639 -19.294148,-188.102 63.34375,-235.8125 82.641,-47.714 188.132052,-19.5752 235.843752,63.0625 2.2003,3.8121 4.08995,7.7493 5.96875,11.6562 l 47.4375,-27.5625 c -1.9165,-3.8141 -3.80695,-7.6288 -5.96875,-11.375 -27.2009,-47.1123 -68.69205,-80.7156 -115.90625,-98.5937 l -17.0625,-49.1563 -15.65625,-45.4687 -8.8125,-25.8438 62.21875,-12.8125 3.71875,-0.5625 a 22.732886,22.732886 0 0 0 13.625,-38.0625 22.732886,22.732886 0 0 0 -3.125,-2.8437 22.732886,22.732886 0 0 0 -0.28125,-0.2813 22.732886,22.732886 0 0 0 -0.25,0 22.732886,22.732886 0 0 0 -3.125,-2 22.732886,22.732886 0 0 0 -0.5625,-0.25 22.732886,22.732886 0 0 0 -1.71875,-0.5625 22.732886,22.732886 0 0 0 -4.25,-1.125 22.732886,22.732886 0 0 0 -0.5625,-0.3125 L -6.0164724,91.107084 a 22.732886,22.732886 0 0 0 -4.5624996,-0.2812 z M 608.01483,279.13838 c -1.2559,0.01 -2.4933,0 -3.75,0.031 -36.5624,0.8618 -73.462,10.4133 -107.4063,29.8437 -0.257,0.1639 -0.6323,0.4213 -0.875,0.5625 l -347.75,200.8751 -15.9375,-27.5625 -21.59375,80.6875 80.71875,21.5937 -15.9375,-27.5625 29.5625,-17.0312 190.6562,-109.9688 124.7188,-72.1562 c 0.9525,-0.5823 1.8735,-1.1609 2.8438,-1.7188 0.257,-0.1611 0.6327,-0.1444 0.875,-0.25 82.5277,-47.1112 187.68187,-18.7623 235.24997,63.625 47.7116,82.6402 19.292,188.1314 -63.3438,235.8438 -82.63897,47.7132 -188.13207,19.543 -235.84377,-63.0938 -2.1986,-3.8115 -4.0915,-7.7207 -5.9687,-11.625 l -47.4375,27.5315 c 1.9149,3.8146 3.8069,7.6301 5.9688,11.375 62.7791,108.7348 201.794,145.7476 310.53117,82.9687 108.7358,-62.7766 146.0273,-201.5461 83.25,-310.2812 -42.3893,-73.4193 -119.4125,-114.2358 -198.53117,-113.6875 z"
           style="fill:#f9f9f9;stroke:none;fill-opacity:1" />
        <g
           style="fill:#f9f9f9;fill-opacity:1"
           id="g7707"
           transform="translate(-2822.7001,1622.6933)">
          <g
             style="fill:#f9f9f9;fill-opacity:1"
             transform="translate(15.140782,0)"
             id="g7751">
            <text
               xml:space="preserve"
               style="font-size:160px;font-style:normal;font-weight:normal;line-height:125%;letter-spacing:0px;word-spacing:0px;fill:#f9f9f9;fill-opacity:1;stroke:none;font-family:Sans"
               x="2472.167"
               y="-625.72144"
               id="text7709"
               sodipodi:linespacing="125%"><tspan
                 sodipodi:role="line"
                 id="tspan7711"
                 x="2472.167"
                 y="-625.72144"
                 style="font-size:160px;font-style:normal;font-variant:normal;font-weight:600;font-stretch:normal;letter-spacing:11.58883762000000000px;fill:#f9f9f9;font-family:Mesmerize Se Sb;-inkscape-font-specification:Mesmerize Se Sb Semi-Bold;fill-opacity:1">WHITE BIKES</tspan></text>
            <text
               sodipodi:linespacing="125%"
               id="text7713"
               y="-505.00375"
               x="2474.2456"
               style="font-size:160.95606995000000000px;font-style:normal;font-weight:normal;line-height:125%;letter-spacing:0px;word-spacing:0px;fill:#f9f9f9;fill-opacity:1;stroke:none;font-family:Sans"
               xml:space="preserve"><tspan
                 style="font-size:80px;font-style:normal;font-variant:normal;font-weight:normal;font-stretch:normal;text-align:start;line-height:125%;letter-spacing:16.39999961999999900px;text-anchor:start;fill:#f9f9f9;font-family:Resamitz;-inkscape-font-specification:Resamitz;fill-opacity:1"
                 y="-505.00375"
                 x="2474.2456"
                 id="tspan7715"
                 sodipodi:role="line">White Bikes Bike Share</tspan></text>
          </g>
        </g>
      </g>
    </g>
  </g>
</svg>
