<?xml version="1.0" encoding="utf-8"?>
<!-- Generator: Adobe Illustrator 21.0.0, SVG Export Plug-In . SVG Version: 6.00 Build 0)  -->
<svg version="1.1" id="Layer_1" xmlns="http://www.w3.org/2000/svg" xmlns:xlink="http://www.w3.org/1999/xlink" x="0px" y="0px"
	 viewBox="0 0 223.3 41.1" style="enable-background:new 0 0 223.3 41.1;" xml:space="preserve">
<style type="text/css">
	.Graphic_x0020_Style_x0020_2{fill:url(#SVGID_1_);}
	.st0{fill:#1798F2;}
	.st1{fill:#FFFFFF;}
	.st2{fill:url(#SVGID_2_);}
	.st3{opacity:0.1;}
	.st4{fill:url(#SVGID_3_);}
	.st5{opacity:0.3;fill:#48050C;}
	.st6{fill:url(#SVGID_4_);}
</style>
<linearGradient id="SVGID_1_" gradientUnits="userSpaceOnUse" x1="0" y1="41.1238" x2="0.7071" y2="41.8309">
	<stop  offset="0" style="stop-color:#FC332E"/>
	<stop  offset="1" style="stop-color:#CE1716"/>
</linearGradient>
<g>
	<path class="st0" d="M29.9,33V17.8h6.7v5.1h4v5.3h-4v4.3c0,1.3,0.4,2.1,1.7,2.1c0.7,0,1.6-0.3,2.3-0.5v5.1
		c-0.9,0.4-2.6,0.8-4.2,0.8c-2.1,0-3.8-0.6-4.9-1.7C30.6,37.2,29.9,35.8,29.9,33z"/>
	<path class="st1" d="M43.5,16.1h7.9c3.2,0,5.5,0.4,7.4,1.3c2.5,1.3,4.3,3.5,4.3,6.9c0,2.8-1.2,5-3.6,6.4c-1.9,1.1-4.5,1.7-7.8,1.7
		h-1.1v4.2l-7,4.5V16.1z M51.7,27.2c1.5,0,2.6-0.1,3.1-0.4c0.8-0.4,1.2-1.2,1.2-2.3c0-1.1-0.5-1.9-1.3-2.3c-0.6-0.3-1.5-0.4-3.2-0.4
		h-1v5.5L51.7,27.2L51.7,27.2z"/>
	<path class="st1" d="M98.5,31.7c-1.4-1.8-2.5-3.5-3.7-5.2l-0.1,0c0,2.1,0.1,4.2,0.1,6.2v6.8H88V16.1h6.5L101,25
		c1.3,1.8,2.5,3.5,3.7,5.2l0.1,0c0-2.1-0.1-4.2-0.1-6.2v-7.8h6.7v23.4h-6.5L98.5,31.7z"/>
	<path class="st1" d="M121.5,22h-7.8v-5.9h22.5V22h-7.8v17.5h-7L121.5,22L121.5,22z"/>
	<path class="st1" d="M138.4,16.1h7v8.6h8.7v-8.6h7v23.4h-7v-8.9h-8.7v8.9h-7V16.1z"/>
	<path class="st1" d="M164.9,16.1h15.9V22h-9v3.1h7.6v5.5h-7.6v3.7h9.4v5.2h-16.3L164.9,16.1L164.9,16.1z"/>
	<path class="st1" d="M184.3,16.1h8.5c3,0,5.2,0.4,6.9,1.2c2.4,1.1,3.9,3.2,3.9,6.4c0,3-1.5,5.3-4.5,6.6l6.5,9.4h-7.9l-5.4-8.4h-1.1
		v9.8l-7-4.5L184.3,16.1L184.3,16.1z M193,26.5c1.3,0,2.2-0.2,2.7-0.5c0.6-0.4,1-1,1-1.9c0-1-0.5-1.7-1.2-2c-0.6-0.3-1.4-0.4-3-0.4
		h-1.3v4.9H193z"/>
	<rect x="20" y="22.9" class="st0" width="6.7" height="16.6"/>
	<path class="st1" d="M76.5,16.1h-7L60,39.5h7.1c0,0,5.3-14.5,5.8-16.1H73c0.5,1.5,5.6,16.1,5.6,16.1h7.5L76.5,16.1z"/>
	<path class="st0" d="M10.4,22.6c-1.3,0-2.7,0.3-3.7,1.1l-0.1,0v-8.5H0v22.2v2.5v0l0,0.1h4.6V39c1.2,0.5,2.5,0.9,4.3,0.9
		c5.2,0,9.1-3.6,9.1-9C18.1,25.7,14.3,22.6,10.4,22.6z M8.2,34.8c-0.6,0-1.2-0.1-1.6-0.3v-6.1c0.6-0.2,1.1-0.4,1.9-0.4
		c1.9,0,2.9,1.4,2.9,3.3C11.3,32.9,10.5,34.8,8.2,34.8z"/>
</g>
<linearGradient id="SVGID_2_" gradientUnits="userSpaceOnUse" x1="193.9863" y1="19.9543" x2="193.653" y2="22.746">
	<stop  offset="0" style="stop-color:#000000;stop-opacity:0.4"/>
	<stop  offset="1" style="stop-color:#000000;stop-opacity:0"/>
</linearGradient>
<path class="st2" d="M203.6,23.7c0-3.2-1.6-5.2-3.9-6.4c-1.7-0.8-3.9-1.2-6.9-1.2h-8.5h0v5l7,1.5v-1h1.3c1.6,0,2.4,0.1,3,0.4
	c0.5,0.2,0.9,0.7,1.1,1.2l7,0.8C203.6,24,203.6,23.9,203.6,23.7z"/>
<g>
	<path class="st1" d="M199.8,13.4c0,0-10.7-4.5-15.8-4.4c-0.6,0.9-2,2.8-2.8,5.9c0.6-0.5,1.2-0.9,1.2-0.9s-0.2,2.5,1.7,4.5
		c2.6,1.1,8,1.4,8,1.4L191,21c0,0,3-0.4,4.2-1.1c-0.1,0.7-0.3,0.9-0.3,0.9s7.9-2.3,14.2,4.5c2-0.7,2.3-2.4,2.6-3.9
		c-0.5-1.7-5.3-7.6-12.5-9.4C199.7,13,199.8,13.4,199.8,13.4z"/>
	<path class="st3" d="M211.6,21.5c-0.4-1.1-2.5-4-5.9-6.3c0.5,2.2-0.5,4.2-2,4.9c-3.8-1.4-6.8-1.7-6.8-1.7l-2.7,0.8
		c0,0,0.8-0.6,1.8-1.6c-4,1.1-9.6,0.1-11.3-0.5c-1.6-1.1-2.3-3-2.3-3s-0.2,2.5,1.7,4.5c2.6,1.1,8,1.4,8,1.4L191,21
		c0,0,3-0.4,4.2-1.1c-0.1,0.7-0.3,0.9-0.3,0.9s7.9-2.3,14.2,4.5C211,24.7,211.4,22.9,211.6,21.5z"/>
	
		<linearGradient id="SVGID_3_" gradientUnits="userSpaceOnUse" x1="193.9841" y1="4.9183" x2="215.5293" y2="26.4635" gradientTransform="matrix(0.9412 0.3378 -0.3378 0.9412 17.9495 -67.4886)">
		<stop  offset="0" style="stop-color:#FC332E"/>
		<stop  offset="1" style="stop-color:#CE1716"/>
	</linearGradient>
	<path class="st4" d="M216,7.6c0,0-2-3.8-15.1-7.6c-8.4,3.3-12,7.1-13.5,9.4c5.4,1.1,12.5,4.1,12.5,4.1s-0.1-0.4-0.6-1.3
		c3.4,0.8,6.3,2.6,8.4,4.4l0,0c0.3,8.5,5.4,14.9,9.7,15.5C212.3,26,216,7.6,216,7.6z"/>
	<path class="st5" d="M216,7.6c0,0-1.4-2.6-9.1-5.6c1.7,1.3,3.4,2.8,4.7,4.6c-0.2,2.1-2.1,13.7,1.1,20.5c-0.3,0.1-0.5,0.2-0.6,0.3
		c-2.3-2.9-4.6-8.2-3.6-17.1c-1.2,2.2-1.8,2.9-1.8,2.9s-4.2-2-9.3-2.6c0.6,1.2,0.6,1.2,0.6,1.2s-5.6-1.8-9-2.1
		c5.1,1.3,10.9,3.7,10.9,3.7s-0.1-0.4-0.6-1.3c3.4,0.8,6.3,2.6,8.4,4.4l0,0c0.3,8.5,5.4,14.9,9.7,15.5C212.3,26,216,7.6,216,7.6z"/>
	<path class="st1" d="M212.5,31.9c0,0-2-3.3,2.5-5.3c2.7-1.1,6.8,1.1,5.9,5.8c-0.5-0.8-0.9-1.1-0.9-1.1s0.7,2.6-2,4.5
		c0.1-0.9,0.2-1.7,0.2-1.7s-4.7,2.8-7.2-2.1C212.1,32.1,212.5,31.9,212.5,31.9z"/>
	
		<linearGradient id="SVGID_4_" gradientUnits="userSpaceOnUse" x1="215.3396" y1="25.4795" x2="224.776" y2="25.4795" gradientTransform="matrix(0.9412 0.3378 -0.3378 0.9412 17.9495 -67.4886)">
		<stop  offset="0" style="stop-color:#E6E7E8"/>
		<stop  offset="1" style="stop-color:#D1D3D4"/>
	</linearGradient>
	<path class="st6" d="M215.4,26.5c1.3,0,2.8,0.6,3.3,1.7c0.5,1,0.4,1.8,0,2.3c-0.8,1.2-2.6,1.5-2.6,1.5s0,0.1,1.3,0.8
		c-4,1-5-2-5.2-3.5c-0.5,1.4,0.3,2.7,0.3,2.7s-0.4,0.1-1.5,0.1c2.5,4.9,7.2,2.1,7.2,2.1s-0.1,0.8-0.2,1.7c2.6-1.8,2-4.5,2-4.5
		s0.4,0.3,0.9,1.1C221.8,27.9,218.1,25.7,215.4,26.5z"/>
</g>
</svg>
