<svg height="30" viewBox="0 0 135 30" width="135" xmlns="http://www.w3.org/2000/svg"><g fill="none" fill-rule="evenodd"><g fill="#fff"><path d="m41.922161 19.2076889h1.7527002c.7789523 0 1.5037819-.0795886 2.1745655-.239383.6707837-.1596401 1.251414-.4245501 1.7419677-.7946529.490247-.3698715.8763884-.8559641 1.1575809-1.4582777.2812692-.6021594.4218654-1.3388946.4218654-2.2094344 0-.754473-.1405962-1.4113111-.4218654-1.9700514-.2811925-.5584319-.6600511-1.0193831-1.1361158-1.3823137-.4759881-.362545-1.0351534-.6346272-1.6769592-.8163239-.6420357-.1811568-1.3164224-.2720051-2.0230068-.2720051h-1.9907325zm-3.3755366-10.90604109c0-.75709511.6101448-1.37089974 1.3628023-1.37089974h3.7005793c1.2259625 0 2.3908262.13796915 3.4944378.41352185 1.1036116.27578406 2.0663969.72215939 2.888586 1.33858612.8223424.6170437 1.4749574 1.41871466 1.9582283 2.40547556.4833475.9871465.724983 2.1842931.724983 3.5917481 0 1.2482005-.234736 2.3473265-.7032879 3.2978406-.4689353.9505913-1.1000852 1.7488689-1.8932965 2.3943702-.7935179.6458098-1.70954 1.1356812-2.7479897 1.4692288-1.0386031.3340874-2.1280324.5007455-3.2672147.5007455h-4.1550256c-.7526575 0-1.3628023-.6138046-1.3628023-1.3709769z"/><path d="m57.4645017 6.93071722h9.4656388c.2601874 0 .4710818.21215939.4710818.47398458v2.18652956c0 .2618252-.2108944.47406174-.4710818.47406174h-6.5611839v2.8733676h6.1715928c.2601874 0 .4711584.2121594.4711584.4739845v2.1865296c0 .2618252-.210971.4740617-.4711584.4740617h-6.1715928v3.1344216h6.9507751c.2601874 0 .4710818.2122365.4710818.4740617v2.1865296c0 .2618252-.2108944.4739845-.4710818.4739845h-9.85523c-.2602641 0-.4711584-.2121593-.4711584-.4739845v-14.4635476c0-.26182519.2108943-.47398458.4711584-.47398458"/><path d="m82.8490247 10.6400514c-.193109.1586375-.4736116.1503085-.6552215-.0215167-.26977-.2552699-.5789437-.461491-.9275979-.61866323-.4833475-.21755785-1.0423595-.32637533-1.6766525-.32637533-.6350596 0-1.2228961.12323908-1.763816.36994856-.5409966.2469409-1.0097019.5915167-1.4061925 1.034036-.3968739.4427507-.706891.9685604-.9305111 1.5781234-.2240034.6094859-.3353918 1.2700257-.3353918 1.9807712 0 .7257841.1113884 1.3898715.3353918 1.9917995.2236201.6023908.5301874 1.1247301.9197786 1.5673265.3891311.4429049.8471039.7873265 1.3738415 1.0338817.5263544.2469409 1.0926491.3701029 1.6985009.3701029.692402 0 1.3056133-.1447558 1.8392504-.43527.3982538-.2165552.7445315-.4979691 1.0384497-.8439331.1711074-.2012082.4673254-.2356813.6782965-.0772751l2.0079812 1.5074036c.2318995.1740617.2673169.5082262.0803407.7302571-.5911328.7017995-1.3040034 1.2353213-2.1388415 1.6003342-.995443.435347-2.0197104.6531362-3.0728024.6531362-1.1975213 0-2.3009796-.1887918-3.3106814-.5660668-1.0096253-.3771208-1.8823339-.9176607-2.6178961-1.6216967-.7357155-.7036504-1.309293-1.5563753-1.7204259-2.5577121-.4110562-1.0011825-.6165843-2.1185861-.6165843-3.3522879 0-1.2331619.2055281-2.350874.6165843-3.3520565.4111329-1.001491.9847104-1.85375325 1.7204259-2.55778924.7355622-.70380462 1.6082708-1.24403599 2.6178961-1.62169666 1.0097018-.37719794 2.1131601-.56606683 3.3106814-.56606683.4329813 0 .8835945.04025707 1.3523765.11984576.4687053.07982005.9305111.20676092 1.3850341.38082262.454523.17413881.8905707.40650385 1.3089097.69678663.2745996.19056555.530494.40912596.7678364.6559126.2034583.21154241.1839864.55311054-.0427002.7392802z"/><path d="m89.2919131 6.93071722h9.486184c.2545911 0 .4608859.20753214.4608859.46365039v2.20727506c0 .25596401-.2062948.46365043-.4608859.46365043h-6.5714566v2.8733676h6.1818655c.2545144 0 .4608858.2076092.4608858.4636504v2.207275c0 .2560411-.2063714.4636504-.4608858.4636504h-6.1818655v3.1344216h6.9608178c.2545911 0 .4608858.2076864.4608858.4636504v2.207275c0 .2561183-.2062947.4636504-.4608858.4636504h-9.8755452c-.2545145 0-.4608858-.2075321-.4608858-.4636504v-14.48421589c0-.25611825.2063713-.46365039.4608858-.46365039"/><path d="m104.682434 6.93071722h3.87667c.158612 0 .305724.08290489.388518.21902314l6.379651 10.49074554h.043466v-10.25167099c0-.25303342.203842-.45809769.45529-.45809769h2.464881c.251448 0 .455366.20506427.455366.45809769v14.49532129c0 .2530335-.203918.4580977-.455366.4580977h-3.703953c-.158381 0-.305417-.0827506-.388211-.2186375l-6.552904-10.7524165h-.043237v10.5129563c0 .2530335-.203842.4580977-.455366.4580977h-2.464805c-.251448 0-.455366-.2050642-.455366-.4580977v-14.49532129c0-.25303342.203918-.45809769.455366-.45809769"/><path d="m127.212378 9.93458869h-3.906414c-.256584 0-.464565-.20922879-.464565-.46735219v-2.06922879c0-.25804627.207981-.46727506.464565-.46727506h11.188211c.256585 0 .464643.20922879.464643.46727506v2.06922879c0 .2581234-.208058.46735219-.464643.46735219h-3.90626v11.94030851c0 .2581234-.207981.4673522-.464489.4673522h-2.446482c-.256585 0-.464566-.2092288-.464566-.4673522z"/></g><path d="m18.2765852 19.6409692 7.8054685-4.5335476c2.0460051-1.1882776 4.6034923.2970694 4.6034923 2.6737789v9.067018c0 2.3766324-2.5574872 3.8620566-4.6034923 2.6737789l-7.8054685-4.5335475c-2.0460051-1.1882777-2.0460051-4.1592031 0-5.3474807" fill="#1ab14b"/><path d="m17.1783322 7.20297686-11.35839864-6.5970694c-2.5866184-1.50239075-5.81994889.3755784-5.81994889 3.38028277v13.19413877c0 3.0047815 3.23333049 4.8827507 5.81994889 3.3803599l11.35839864-6.5971465c2.5866184-1.5023136 2.5866184-5.25825191 0-6.76056554" fill="#008a6e"/></g></svg>