<?xml version="1.0" encoding="UTF-8"?>
<svg width="135px" height="33px" viewBox="0 0 135 33" version="1.1" xmlns="http://www.w3.org/2000/svg" xmlns:xlink="http://www.w3.org/1999/xlink">
    <!-- Generator: Sketch 47.1 (45422) - http://www.bohemiancoding.com/sketch -->
    <title>DCore logo new</title>
    <desc>Created with Sketch.</desc>
    <defs></defs>
    <g id="DCore---Landing-Page-" stroke="none" stroke-width="1" fill="none" fill-rule="evenodd">
        <g id="DCore---Landing-Page" transform="translate(-652.000000, -141.000000)" fill="#FFFFFF">
            <g id="DCore-logo-new" transform="translate(652.000000, 141.000000)">
                <path d="M12.8013583,26.2115509 L5.42743121,26.2115509 L5.42743121,32.5217391 L12.8013583,32.5217391 C25.7781558,32.5217391 29.4502415,24.3260182 32.4008122,17.7401233 C35.2623538,11.3539701 37.5223552,6.30994549 47.1021284,6.31018819 C47.1021284,6.31018819 57.4981884,6.31018819 62.098746,6.31018819 L62.098746,0 L47.1010572,0 C33.5460477,0 29.7890989,8.38284231 26.7712805,15.1182401 C23.8859343,21.5585152 21.8011342,26.2115509 12.8013583,26.2115509 Z" id="Combined-Shape" opacity="0.7"></path>
                <path d="M46.8990689,26.2115509 C38.1041437,26.2115509 36.0591931,21.5640973 33.2287271,15.132074 C30.2620417,8.390366 26.5696445,0 13.2244254,0 L6.17021192,0 L0,0 L0,32.5217391 L6.17021192,32.5217391 L6.17021192,6.31018819 L13.2244254,6.31018819 C22.5803652,6.31018819 24.7964205,11.3459611 27.6019684,17.7216781 C30.5033919,24.3153394 34.1146271,32.5217391 46.8990689,32.5217391 L63.0938878,32.5217391 C63.0938878,32.5217391 60.1299518,30.6601276 59.1517168,26.2115509 C55.1974501,26.2115509 46.8990689,26.2115509 46.8990689,26.2115509 Z" id="Symbol-1"></path>
                <g id="o" transform="translate(63.565217, 7.391304)" opacity="0.7">
                    <path d="M12.5652174,25.1304348 C5.62563945,25.1304348 0,19.5047953 0,12.5652174 C0,5.62563945 5.62563945,0 12.5652174,0 C19.5047953,0 25.1304348,5.62563945 25.1304348,12.5652174 C25.1304348,19.5047953 19.5047953,25.1304348 12.5652174,25.1304348 Z M12.5652174,19.2173913 C16.2391116,19.2173913 19.2173913,16.2391116 19.2173913,12.5652174 C19.2173913,8.89132319 16.2391116,5.91304348 12.5652174,5.91304348 C8.89132319,5.91304348 5.91304348,8.89132319 5.91304348,12.5652174 C5.91304348,16.2391116 8.89132319,19.2173913 12.5652174,19.2173913 Z" id="Combined-Shape"></path>
                </g>
                <g id="Group" transform="translate(93.573918, 7.391304)" opacity="0.7">
                    <g id="e" transform="translate(15.817387, 0.000000)">
                        <path d="M24.9368569,14.7744282 C24.9393751,14.7744282 24.9418933,14.7744282 24.9444116,14.7744282 C24.828336,15.6398097 24.5173747,16.6435626 24.0115277,17.785687 C24.0070161,17.785687 24.0025034,17.785687 23.9979896,17.785687 C22.0159026,22.1193995 17.6421925,25.1304348 12.5652174,25.1304348 C5.62563945,25.1304348 0,19.5047953 0,12.5652174 C0,5.62563945 5.62563945,0 12.5652174,0 C19.5047953,0 25.1304348,5.62563945 25.1304348,12.5652174 C25.1304348,13.3189636 25.0640672,14.0572089 24.9368569,14.7744282 Z M6.29156483,14.7826087 C7.2047673,17.3662961 9.66881912,19.2173913 12.5652174,19.2173913 C15.4616157,19.2173913 17.9256675,17.3662961 18.83887,14.7826087 L6.29156483,14.7826087 Z M6.29156483,10.3478261 L18.83887,10.3478261 C17.9256675,7.76413865 15.4616157,5.91304348 12.5652174,5.91304348 C9.66881912,5.91304348 7.2047673,7.76413865 6.29156483,10.3478261 Z M24.9368569,14.7744282 C22.9145286,14.7744282 20.9174462,14.7744282 18.9456097,14.7744282 C18.294568,16.111531 17.5716677,17.1152839 16.7769085,17.785687 C19.4452444,17.785687 21.8522714,17.785687 23.9979896,17.785687 C24.4308952,16.8391655 24.7497144,15.8295492 24.9368569,14.7744282 Z" id="Combined-Shape"></path>
                    </g>
                    <path d="M16.9747368,0.00358369955 C14.7666487,1.25745966 13.0753746,3.22727959 11.9009143,5.91304348 C7.93394286,5.91304348 5.93798592,7.88405797 5.91304348,11.826087 C5.91304348,15.5916742 5.91304348,20.0264568 5.91304348,25.1304348 L-6.39488462e-13,25.1304348 C-1.91331653e-13,20.797026 -1.91331653e-13,16.3622434 -6.39488462e-13,11.826087 C-6.39488462e-13,4.07927352 4.24079303,0.138439105 11.9009143,0.00358369955 C12.036623,0.00119456652 13.0197152,0.040661798 16.9747368,0.00358369955 Z" id="Rectangle-4"></path>
                </g>
            </g>
        </g>
    </g>
</svg>