<svg xmlns="http://www.w3.org/2000/svg" viewBox="0 0 332 122.66"><defs><style>.cls-1,.cls-2{fill:none;stroke:#fff;}.cls-1{stroke-linejoin:bevel;stroke-width:0.5px;}.cls-2{stroke-linecap:square;stroke-width:4px;}</style></defs><title>Asset 81</title><g id="Layer_2" data-name="Layer 2"><g id="PB_black" data-name="PB black"><line class="cls-1" x1="10.13" y1="83.96" x2="10.13" y2="92.96"/><line class="cls-1" x1="19.13" y1="83.96" x2="19.13" y2="92.96"/><line class="cls-1" x1="28.13" y1="83.96" x2="28.13" y2="92.96"/><line class="cls-1" x1="37.13" y1="83.96" x2="37.13" y2="92.96"/><line class="cls-1" x1="46.13" y1="83.96" x2="46.13" y2="92.96"/><line class="cls-1" x1="82.13" y1="83.96" x2="82.13" y2="92.96"/><line class="cls-1" x1="91.13" y1="83.96" x2="91.13" y2="92.96"/><line class="cls-1" x1="100.13" y1="83.96" x2="100.13" y2="92.96"/><line class="cls-1" x1="109.13" y1="83.96" x2="109.13" y2="92.96"/><line class="cls-1" x1="127.13" y1="83.96" x2="127.13" y2="92.96"/><line class="cls-1" x1="136.13" y1="83.96" x2="136.13" y2="92.96"/><line class="cls-1" x1="172.13" y1="83.96" x2="172.13" y2="92.96"/><line class="cls-1" x1="199.13" y1="83.96" x2="199.13" y2="92.96"/><line class="cls-1" x1="226.13" y1="83.96" x2="226.13" y2="92.96"/><line class="cls-1" x1="235.13" y1="83.96" x2="235.13" y2="92.96"/><line class="cls-1" x1="244.13" y1="83.96" x2="244.13" y2="92.96"/><line class="cls-1" x1="253.13" y1="83.96" x2="253.13" y2="92.96"/><line class="cls-1" x1="262.13" y1="83.96" x2="262.13" y2="92.96"/><line class="cls-1" x1="271.13" y1="83.96" x2="271.13" y2="92.96"/><line class="cls-1" x1="280.13" y1="83.96" x2="280.13" y2="92.96"/><line class="cls-1" x1="289.13" y1="83.96" x2="289.13" y2="92.96"/><line class="cls-1" x1="307.13" y1="83.96" x2="325.13" y2="83.96"/><line class="cls-1" x1="307.13" y1="92.96" x2="325.13" y2="92.96"/><line class="cls-1" x1="298.13" y1="83.96" x2="298.13" y2="92.96"/></g><g id="PB_white" data-name="PB white"><polyline class="cls-2" points="11 119.83 2 110.83 2 47.83 29 47.83 29 65.83 20 74.83 11 74.83"/><polyline class="cls-2" points="37 74.83 37 56.83 46 47.83 55 47.83"/><polygon class="cls-2" points="67 47.83 58 56.83 58 74.83 76 74.83 85 65.83 85 47.83 67 47.83"/><polyline class="cls-2" points="112 119.83 121 110.83 121 47.83 94 47.83 94 65.83 103 74.83 112 74.83"/><polyline class="cls-2" points="130 74.83 130 56.83 139 47.83 148 47.83"/><polyline class="cls-2" points="172 74.83 154 74.83 154 56.83 163 47.83 181 47.83 181 56.83 172 65.83"/><polyline class="cls-2" points="190 75.83 199 75.83 208 66.83"/><polyline class="cls-2" points="208 66.83 190 48.83 199 39.83 208 39.83"/><polyline class="cls-2" points="211 75.83 220 75.83 229 66.83 211 48.83 220 39.83 229 39.83"/><polyline class="cls-2" points="248 56.83 257 47.83 266 47.83 266 74.83 239 74.83 239 11.83 248 2.83"/><polyline class="cls-2" points="312 74.83 312 56.83 321 47.83 330 47.83"/><polyline class="cls-2" points="276.07 47.83 294.07 47.83 303.07 56.83 303.07 74.83 276.07 74.83 276.07 65.83 285.07 56.83"/></g></g></svg>