<?xml version="1.0" encoding="utf-8"?>
<svg width="186px" height="46px" viewBox="150 20 186 46" version="1.1" xmlns="http://www.w3.org/2000/svg" xmlns:xlink="http://www.w3.org/1999/xlink">
    <!-- Generator: Sketch 3.8.3 (29802) - http://www.bohemiancoding.com/sketch -->
    <desc>Created with Sketch.</desc>
    <defs></defs>
    <g id="WY-logo-RGB" stroke="none" stroke-width="1" fill="none" fill-rule="evenodd" transform="translate(150.000000, 20.000000)" data-darkreader-inline-fill="" data-darkreader-inline-stroke="" style="--darkreader-inline-fill:none; --darkreader-inline-stroke:none;">
        <g id="Group-25" transform="translate(90.000000, 0.000000)" fill="#000000" data-darkreader-inline-fill="" style="--darkreader-inline-fill:#000000;">
            <path d="M28.0864598,12.2756581 L30.8570019,13.2071233 C30.2738243,15.4500767 28.2551327,16.2382395 26.0453383,16.2382395 C22.8378617,16.2382395 20.6262729,14.1621698 20.6262729,10.605007 C20.6262729,6.81021628 22.7167402,4.66249535 26.0928897,4.66249535 C29.2761421,4.66249535 30.8327776,6.71407674 30.8327776,9.55472791 C30.8327776,10.0327047 30.7834318,10.5333558 30.6856374,10.9868442 L23.7619738,10.9868442 C23.8337495,12.6819837 24.635843,13.7794256 26.1189084,13.7794256 C26.9927776,13.7794256 27.7221981,13.4456581 28.0864598,12.2756581 L28.0864598,12.2756581 Z M27.7221981,9.22096047 C27.7464224,9.07765814 27.7464224,8.98242558 27.7464224,8.83912326 C27.7464224,7.81242558 27.1372262,7.02516977 25.9726654,7.02516977 C24.7569645,7.02516977 23.9790953,7.93123953 23.8579738,9.22096047 L27.7221981,9.22096047 Z" id="Fill-1"></path>
            <path d="M34.0855626,15.9518163 L31.8004037,15.9518163 L31.8004037,0.00807209302 L35.0572262,0.00807209302 L35.0572262,6.9772814 C35.6637308,5.30663023 37.0750206,4.66267674 38.6774131,4.66267674 C41.424628,4.66267674 43.0018991,6.66709535 43.0018991,10.1752814 C43.0018991,13.8031884 41.2532636,16.2384209 38.215357,16.2384209 C36.2962542,16.2384209 35.2267963,15.4030953 34.8876561,14.3528163 L34.0855626,15.9518163 Z M35.0321047,11.4414209 C35.0321047,13.3261186 36.2226841,13.9473977 37.1701234,13.9473977 C38.5562916,13.9473977 39.7217495,12.8009791 39.7217495,10.462793 C39.7217495,8.17086279 38.8245533,7.21581628 37.3917308,7.21581628 C36.199357,7.21581628 35.0321047,8.14637442 35.0321047,9.81793256 L35.0321047,11.4414209 Z" id="Fill-3"></path>
            <path d="M51.7482168,5.3546093 C52.2165533,4.87663256 52.3331888,4.56735349 52.5682542,3.68395814 L55.0319551,4.51928372 C54.9144224,5.59314419 53.952628,6.33323721 53.060815,6.59535349 C53.390086,7.12049302 53.5551701,7.78893488 53.5551701,8.5526093 C53.5551701,11.1066558 51.3498617,12.348307 48.581114,12.348307 C48.0634318,12.348307 47.5233196,12.3002372 47.2658243,12.2050047 C46.8907963,12.4435395 46.9571888,13.1192372 47.5215252,13.1192372 L50.6177495,13.1192372 C53.0590206,13.1192372 54.4451888,14.4561209 54.4451888,16.366214 C54.4451888,19.5161442 51.2520673,20.3278884 48.1540486,20.3278884 C45.4804037,20.3278884 43.0875813,19.6830279 43.0875813,17.5588884 C43.0875813,16.2700744 44.0009271,15.4828186 45.9496374,15.3386093 C44.8703103,15.2678651 44.0215626,14.3454698 44.1884411,13.3813535 C44.3284037,12.5732372 44.8496748,12.228586 46.1165159,11.8712372 C44.6370393,11.2735395 43.8627589,10.318493 43.8627589,8.5526093 C43.8627589,5.99946977 45.7863477,4.66258605 48.672628,4.66258605 C49.8946093,4.66258605 50.948815,4.90112093 51.7482168,5.3546093 M48.5066467,18.2037488 C50.688628,18.2037488 51.5095626,17.7974233 51.5095626,16.9149349 C51.5095626,16.246493 51.1121047,15.9834698 50.1727402,15.9834698 L47.4981981,15.9834698 C46.606385,15.9834698 45.9729645,16.2936558 45.9729645,16.9385163 C45.9729645,17.7974233 46.8414505,18.2037488 48.5066467,18.2037488 M48.672628,10.2477488 C49.7519551,10.2477488 50.3414131,9.65095814 50.3414131,8.5526093 C50.3414131,7.3826093 49.7519551,6.83388837 48.672628,6.83388837 C47.5717682,6.85837674 47.0325533,7.45516744 47.0325533,8.5526093 C47.0325533,9.53123721 47.5717682,10.2477488 48.672628,10.2477488" id="Fill-5"></path>
            <path d="M32.973757,23.3953744 C33.4420935,22.9173977 33.558729,22.6081186 33.7937944,21.7247233 L36.2574953,22.5600488 C36.1399626,23.6339093 35.1781682,24.3730953 34.2863551,24.6352116 C34.6156262,25.1612581 34.7807103,25.8297 34.7807103,26.5924674 C34.7807103,29.1474209 32.5745047,30.3890721 29.805757,30.3890721 C29.288972,30.3890721 28.7488598,30.3410023 28.4913645,30.2457698 C28.1163364,30.4843047 28.182729,31.1600023 28.7470654,31.1600023 L31.8432897,31.1600023 C34.2845607,31.1600023 35.670729,32.496886 35.670729,34.4069791 C35.670729,37.5560023 32.4776075,38.3686535 29.3795888,38.3686535 C26.7059439,38.3686535 24.3122243,37.723793 24.3122243,35.5996535 C24.3122243,34.3108395 25.2255701,33.5235837 27.1742804,33.3793744 C26.0958505,33.3086302 25.2462056,32.3862349 25.4139813,31.4221186 C25.5539439,30.6140023 26.075215,30.2684442 27.3420561,29.9129093 C25.8625794,29.3133977 25.0882991,28.3592581 25.0882991,26.5924674 C25.0882991,24.0402349 27.0118879,22.7033512 29.8981682,22.7033512 C31.1201495,22.7033512 32.1743551,22.941886 32.973757,23.3953744 M29.7321869,36.244514 C31.9141682,36.244514 32.7351028,35.8381884 32.7351028,34.9557 C32.7351028,34.2872581 32.3376449,34.0242349 31.3982804,34.0242349 L28.7228411,34.0242349 C27.8319252,34.0242349 27.1985047,34.3344209 27.1985047,34.9783744 C27.1985047,35.8381884 28.0660935,36.244514 29.7321869,36.244514 M29.8981682,28.288514 C30.9774953,28.288514 31.5669533,27.6908163 31.5669533,26.5924674 C31.5669533,25.4233744 30.9774953,24.8746535 29.8981682,24.8746535 C28.7964112,24.8991419 28.2571963,25.4959326 28.2571963,26.5924674 C28.2571963,27.5720023 28.7964112,28.288514 29.8981682,28.288514" id="Fill-7"></path>
            <path d="M60.9322766,15.8800744 C60.2997533,16.0478651 59.6932486,16.1666791 59.0607252,16.1666791 C57.4332112,16.1666791 55.9501458,15.426586 55.9501458,13.3505163 L55.9501458,0.00798139535 L59.2078654,0.00798139535 L59.2078654,12.4199581 C59.2078654,13.1119814 59.6448,13.3740977 60.2279776,13.3740977 C60.5186692,13.3740977 60.8111551,13.3269349 61.1018467,13.207214 L60.9322766,15.8800744 Z" id="Fill-9"></path>
            <path d="M61.6147738,10.4142698 C61.6147738,6.66754884 63.7770168,4.66222326 67.0580636,4.66222326 C70.314886,4.66222326 72.4762318,6.66754884 72.4762318,10.4142698 C72.4762318,14.1374093 70.314886,16.2388744 67.0580636,16.2388744 C63.7770168,16.2388744 61.6147738,14.1374093 61.6147738,10.4142698 M64.8240449,10.4142698 C64.8240449,12.705293 65.5274467,13.7564791 67.0580636,13.7564791 C68.5644561,13.7564791 69.2696523,12.705293 69.2696523,10.4142698 C69.2696523,8.24206047 68.541129,7.21626977 67.0580636,7.21626977 C65.5534654,7.21626977 64.8240449,8.24206047 64.8240449,10.4142698" id="Fill-11"></path>
            <path d="M75.9252336,15.9518163 L73.6400748,15.9518163 L73.6400748,0.00807209302 L76.8977944,0.00807209302 L76.8977944,6.9772814 C77.5042991,5.30663023 78.9146916,4.66267674 80.5179813,4.66267674 C83.2651963,4.66267674 84.8424673,6.66709535 84.8424673,10.1752814 C84.8424673,13.8031884 83.0938318,16.2384209 80.0559252,16.2384209 C78.1368224,16.2384209 77.0664673,15.4030953 76.7282243,14.3528163 L75.9252336,15.9518163 Z M76.8726729,11.4414209 C76.8726729,13.3261186 78.0632523,13.9473977 79.0106916,13.9473977 C80.3968598,13.9473977 81.5623178,12.8009791 81.5623178,10.462793 C81.5623178,8.17086279 80.6633271,7.21581628 79.2314019,7.21581628 C78.039028,7.21581628 76.8726729,8.14637442 76.8726729,9.81793256 L76.8726729,11.4414209 Z" id="Fill-13"></path>
            <path d="M93.1454804,12.2756581 L95.9160224,13.2071233 C95.3328449,15.4500767 93.3141533,16.2382395 91.1043589,16.2382395 C87.8968822,16.2382395 85.6852935,14.1621698 85.6852935,10.605007 C85.6852935,6.81021628 87.7757607,4.66249535 91.1519103,4.66249535 C94.3351626,4.66249535 95.8917981,6.71407674 95.8917981,9.55472791 C95.8917981,10.0327047 95.8424523,10.5333558 95.7446579,10.9868442 L88.8209944,10.9868442 C88.8927701,12.6819837 89.6948636,13.7794256 91.177929,13.7794256 C92.0517981,13.7794256 92.7812187,13.4456581 93.1454804,12.2756581 L93.1454804,12.2756581 Z M92.7812187,9.22096047 C92.805443,9.07765814 92.805443,8.98242558 92.805443,8.83912326 C92.805443,7.81242558 92.1962467,7.02516977 91.031686,7.02516977 C89.815985,7.02516977 89.0381159,7.93123953 88.9169944,9.22096047 L92.7812187,9.22096047 Z" id="Fill-15"></path>
            <path d="M21.1051065,30.4740558 L23.877443,31.4055209 C23.292471,33.6484744 21.2746766,34.4366372 19.0648822,34.4366372 C15.8574056,34.4366372 13.6458168,32.3605674 13.6458168,28.8034047 C13.6458168,25.0095209 15.7362841,22.860893 19.1124336,22.860893 C22.295686,22.860893 23.8523215,24.9124744 23.8523215,27.7531256 C23.8523215,28.2311023 23.8038729,28.7317535 23.7051813,29.1861488 L16.7806206,29.1861488 C16.8541907,30.8803814 17.6553869,31.9778233 19.1375551,31.9778233 C20.0123215,31.9778233 20.7408449,31.6440558 21.1051065,30.4740558 L21.1051065,30.4740558 Z M20.7408449,27.4202651 C20.7668636,27.2769628 20.7668636,27.1808233 20.7668636,27.0375209 C20.7668636,26.0108233 20.1567701,25.2235674 18.9922093,25.2235674 C17.7774056,25.2235674 16.9977421,26.1305442 16.8766206,27.4202651 L20.7408449,27.4202651 Z" id="Fill-17"></path>
            <path d="M35.9123439,28.6123047 C35.9123439,24.8655837 38.0745869,22.8611651 41.3556336,22.8611651 C44.6124561,22.8611651 46.7738019,24.8655837 46.7738019,28.6123047 C46.7738019,32.3354442 44.6124561,34.4369093 41.3556336,34.4369093 C38.0745869,34.4369093 35.9123439,32.3354442 35.9123439,28.6123047 M39.1207178,28.6123047 C39.1207178,30.9033279 39.8241196,31.9554209 41.3556336,31.9554209 C42.8620262,31.9554209 43.5663252,30.9033279 43.5663252,28.6123047 C43.5663252,26.4400953 42.8386991,25.4152116 41.3556336,25.4152116 C39.8501383,25.4152116 39.1207178,26.4400953 39.1207178,28.6123047" id="Fill-19"></path>
            <path d="M51.0710131,25.1509186 C51.678415,23.5047558 53.2673495,22.7655698 54.9926579,22.7655698 C56.7179664,22.7655698 58.2988262,23.7677791 58.2988262,26.2492674 L58.2988262,34.0538023 L55.0411065,34.0538023 L55.0411065,27.4428488 C55.0411065,26.225686 54.3753869,25.4375233 53.2081346,25.4375233 C52.1637981,25.4375233 51.1670131,26.0116395 51.1670131,27.9924767 L51.1670131,34.0538023 L47.9110879,34.0538023 L47.9110879,23.027686 L50.6816299,23.027686 L51.0710131,25.1509186 Z" id="Fill-21"></path>
            <path d="M14.9316785,9.55554419 C15.3730991,11.5826372 15.619828,13.5861488 15.619828,13.5861488 L15.7185196,13.5861488 C15.7185196,13.5861488 15.9150056,11.5590558 16.3322019,9.57912558 L17.9543327,1.73468372 L21.3448374,1.73468372 L18.175043,15.9515442 L13.3086505,15.9515442 L11.6631925,8.92791628 C11.1957533,6.92440465 11.0979589,4.9453814 11.0979589,4.9453814 L10.9992673,4.9453814 C10.9992673,4.9453814 10.8763514,6.92440465 10.385585,8.95240465 L8.66476262,15.9515442 L3.97063178,15.9515442 L0.776613084,1.73468372 L4.31515514,1.73468372 L5.98573458,9.55554419 C6.42894953,11.5826372 6.65055701,13.5861488 6.65055701,13.5861488 L6.7483514,13.5861488 C6.7483514,13.5861488 6.96906168,11.5590558 7.38715514,9.57912558 L9.15642617,1.73468372 L13.137286,1.73468372 L14.9316785,9.55554419 Z" id="Fill-23"></path>
        </g>
        <polygon id="Fill-26" fill="#000000" points="99.1083318 26.3694016 99.2056092 26.3694016 102.535153 20 106 20 100.804498 29.3419676 100.804498 34 97.5094435 34 97.5094435 29.3419676 92 20 95.731034 20" data-darkreader-inline-fill="" style="--darkreader-inline-fill:#e8e7e3;"></polygon>
        <g id="Group-39">
            <path d="M13.2178667,24.9818784 C14.5947556,22.0694471 15.9725333,19.1579176 17.3503111,16.2463882 L11.1876444,3.21846667 C9.87386667,0.441329412 6.5272,-0.760082353 3.7112,0.535133333 C0.896088889,1.83034902 -0.322577778,5.12972157 0.990311111,7.9050549 L12.1636444,31.4976431 C12.1280889,31.4011333 12.0863111,31.3253686 12.0587556,31.2306627 C11.8614222,30.7021137 11.7423111,30.1365843 11.7236444,29.5458 C11.6703111,27.8870941 12.5298667,26.4385451 13.2178667,24.9818784" id="Fill-27" fill="#7ACBE2" data-darkreader-inline-fill="" style="--darkreader-inline-fill:#7acbe2;"></path>
            <path d="M13.2178667,24.9818784 C12.5298667,26.4385451 11.6703111,27.8870941 11.7236444,29.5458 C11.8187556,32.5177608 14.3832,34.8538392 17.2667556,34.9133686 C17.2907556,34.9142706 17.4400889,34.9160745 17.4560889,34.9160745 C19.3245333,34.8799961 20.8827556,33.9879569 22.0756444,32.282349 C22.0818667,32.2733294 22.4178667,31.7655255 22.4463111,31.7186235 C23.0827556,30.6452902 25.9716444,24.5345059 28.6640889,18.7727804 L23.5174222,7.9050549 C22.8472,6.39246667 22.8400889,4.65348627 23.5156444,3.22117255 C23.5156444,3.22117255 14.5947556,22.0694471 13.2178667,24.9818784" id="Fill-29" fill="#00B3FF" data-darkreader-inline-fill="" style="--darkreader-inline-fill:#33c2ff;"></path>
            <path d="M35.7443556,24.9818784 C35.0563556,26.4385451 34.1968,27.8870941 34.2501333,29.5458 C34.3452444,32.5177608 36.9096889,34.8538392 39.7932444,34.9133686 C39.8172444,34.9142706 39.9665778,34.9160745 39.9825778,34.9160745 C41.8510222,34.8799961 43.4092444,33.9879569 44.6021333,32.282349 C44.6083556,32.2733294 44.9443556,31.7655255 44.9728,31.7186235 C45.6092444,30.6452902 48.4981333,24.5345059 51.1905778,18.7727804 L46.0439111,7.9050549 C45.3736889,6.39246667 45.3665778,4.65348627 46.0421333,3.22117255 C46.0421333,3.22117255 37.1221333,22.0694471 35.7443556,24.9818784" id="Fill-31" fill="#103D65" data-darkreader-inline-fill="" style="--darkreader-inline-fill:#9ccbef;"></path>
            <path d="M39.8762667,16.246298 C39.8762667,16.246298 33.6967111,3.17959216 33.7136,3.21747451 C33.1669333,1.99621961 32.2256,1.10418039 30.9891556,0.535945098 C28.4389333,-0.645623529 25.2913778,0.297827451 23.8238222,2.65555294 C22.7882667,4.31786667 22.7651556,6.31751373 23.5909333,8.06190588 C24.8309333,10.680298 34.6904889,31.4984549 34.6904889,31.4984549 C34.6540444,31.4010431 34.6122667,31.3261804 34.5847111,31.2305725 C34.3873778,30.7020235 34.2691556,30.1364941 34.2496,29.5466118 C34.1962667,27.8870039 35.0558222,26.4375529 35.7447111,24.9817882 C37.1216,22.0702588 38.4984889,19.1578275 39.8762667,16.246298" id="Fill-33" fill="#0B64A5" data-darkreader-inline-fill="" style="--darkreader-inline-fill:#70bef5;"></path>
            <path d="M62.4027556,16.246298 C62.4027556,16.246298 56.2232,3.17959216 56.2400889,3.21747451 C55.6934222,1.99621961 54.7520889,1.10418039 53.5156444,0.535945098 C50.9654222,-0.645623529 47.8178667,0.297827451 46.3503111,2.65555294 C45.3147556,4.31786667 45.2916444,6.31751373 46.1174222,8.06190588 C47.1138667,10.1652784 56.2134222,29.3788471 56.2134222,29.3788471 L62.4027556,16.246298 Z" id="Fill-35" fill="#E7302A" data-darkreader-inline-fill="" style="--darkreader-inline-fill:#eb5651;"></path>
            <path d="M76.0460444,0.535133333 C73.2300444,-0.759180392 69.8833778,0.441329412 68.5704889,3.21756471 C68.5704889,3.21756471 54.4291556,33.1202706 53.0513778,36.032702 C52.3633778,37.4884667 51.5038222,38.9379176 51.5571556,40.5975255 C51.6522667,43.5685843 54.2167111,45.9046627 57.1002667,45.9632902 C57.1242667,45.9650941 57.2736,45.966898 57.2896,45.966898 C59.1580444,45.9317216 60.7162667,45.0378784 61.9091556,43.3331725 C61.9153778,43.3241529 62.2513778,42.816349 62.2798222,42.7694471 C62.9162667,41.6961137 66.2549333,34.4299176 68.9473778,28.6672902 L68.9473778,28.6663882 L78.7669333,7.9050549 C80.0798222,5.12972157 78.8620444,1.82944706 76.0460444,0.535133333" id="Fill-37" fill="#EB5B0C" data-darkreader-inline-fill="" style="--darkreader-inline-fill:#bb480a;"></path>
        </g>
    </g>
</svg>