<?xml version="1.0" encoding="utf-8"?>
<!-- Generator: Adobe Illustrator 16.0.0, SVG Export Plug-In . SVG Version: 6.00 Build 0)  -->
<!DOCTYPE svg PUBLIC "-//W3C//DTD SVG 1.1//EN" "http://www.w3.org/Graphics/SVG/1.1/DTD/svg11.dtd">
<svg version="1.1" id="Layer_1" xmlns="http://www.w3.org/2000/svg" xmlns:xlink="http://www.w3.org/1999/xlink" x="0px" y="0px"
	 width="205.642px" height="26.023px" viewBox="0 0 205.642 26.023" enable-background="new 0 0 205.642 26.023"
	 xml:space="preserve">
<g>
	<path fill="#1798F2" d="M29.934,17.86V2.725h6.685v5.108h3.984v5.267h-3.984v4.288c0,1.316,0.404,2.06,1.655,2.06
		c0.742,0,1.62-0.271,2.329-0.54v5.098c-0.945,0.439-2.566,0.811-4.152,0.811c-2.061,0-3.816-0.642-4.896-1.722
		C30.608,22.147,29.934,20.73,29.934,17.86z"/>
	<path fill="#FFFFFF" d="M43.54,1.046h7.934c3.174,0,5.537,0.372,7.359,1.283c2.532,1.25,4.254,3.477,4.254,6.887
		c0,2.836-1.215,5.031-3.645,6.448c-1.892,1.115-4.491,1.654-7.834,1.654h-1.113v4.232l-6.955,4.472V1.046z M51.744,12.052
		c1.519,0,2.565-0.136,3.14-0.438c0.811-0.406,1.248-1.182,1.248-2.262c0-1.114-0.473-1.925-1.349-2.33
		c-0.643-0.303-1.487-0.438-3.243-0.438h-1.045v5.469H51.744z"/>
	<path fill="#FFFFFF" d="M98.454,16.644c-1.352-1.823-2.532-3.478-3.748-5.233l-0.067,0.034c0.034,2.059,0.067,4.154,0.067,6.212
		v6.766h-6.684V1.046h6.515l6.483,8.846c1.35,1.823,2.532,3.477,3.746,5.233l0.068-0.034c-0.033-2.059-0.068-4.151-0.068-6.212
		V1.046h6.686v23.376h-6.516L98.454,16.644z"/>
	<path fill="#FFFFFF" d="M121.537,6.921h-7.765V1.046h22.486v5.875h-7.766v17.501h-6.956V6.921z"/>
	<path fill="#FFFFFF" d="M138.386,1.046h6.955V9.68h8.711V1.046h6.955v23.376h-6.955v-8.868h-8.711v8.868h-6.955V1.046z"/>
	<path fill="#FFFFFF" d="M164.856,1.046h15.935v5.875h-8.98v3.106h7.597v5.536h-7.597v3.696h9.386v5.163h-16.34V1.046z"/>
	<path fill="#FFFFFF" d="M184.304,1.046h8.541c2.971,0,5.166,0.372,6.854,1.216c2.362,1.147,3.948,3.207,3.948,6.381
		c0,3.003-1.451,5.3-4.49,6.584l6.484,9.373h-7.867l-5.437-8.395h-1.08v9.817l-6.954-4.472V1.046z M192.979,11.444
		c1.283,0,2.194-0.168,2.736-0.505c0.641-0.372,0.978-1.013,0.978-1.926c0-1.045-0.474-1.688-1.182-2.026
		c-0.573-0.269-1.384-0.404-2.972-0.404h-1.282v4.861H192.979z"/>
	<rect x="19.972" y="7.849" fill="#1798F2" width="6.74" height="16.622"/>
	<path fill="#FFFFFF" d="M76.519,1.032h-6.967l-9.539,23.39h7.113c0,0,5.341-14.531,5.795-16.073h0.065
		c0.456,1.542,5.601,16.073,5.601,16.073h7.471L76.519,1.032z"/>
	<path fill="#1798F2" d="M10.423,7.483c-1.316,0-2.736,0.336-3.746,1.077L6.571,8.527V0H0.023v22.17v2.505v0.005L0,24.758h4.646
		v-0.88c1.156,0.534,2.535,0.937,4.313,0.937c5.225,0,9.128-3.643,9.128-9.004C18.087,10.551,14.333,7.483,10.423,7.483z
		 M8.16,19.655c-0.642,0-1.204-0.135-1.589-0.303v-6.138c0.578-0.201,1.115-0.404,1.857-0.404c1.924,0,2.9,1.382,2.9,3.304
		C11.329,17.834,10.521,19.655,8.16,19.655z"/>
</g>
</svg>
