<?xml version="1.0" encoding="UTF-8" standalone="no"?>
<svg
   xmlns:dc="http://purl.org/dc/elements/1.1/"
   xmlns:cc="http://creativecommons.org/ns#"
   xmlns:rdf="http://www.w3.org/1999/02/22-rdf-syntax-ns#"
   xmlns:svg="http://www.w3.org/2000/svg"
   xmlns="http://www.w3.org/2000/svg"
   viewBox="0 0 707.96533 89.995468"
   height="89.995468"
   width="707.96533"
   xml:space="preserve"
   id="svg2"
   version="1.1"><metadata
     id="metadata8"><rdf:RDF><cc:Work
         rdf:about=""><dc:format>image/svg+xml</dc:format><dc:type
           rdf:resource="http://purl.org/dc/dcmitype/StillImage" /></cc:Work></rdf:RDF></metadata><defs
     id="defs6"><clipPath
       id="clipPath36"
       clipPathUnits="userSpaceOnUse"><path
         id="path34"
         d="M 0,67.497 H 530.974 V 0 H 0 Z" /></clipPath></defs><g
     transform="matrix(1.3333333,0,0,-1.3333333,0,89.995467)"
     id="g10"><path
       id="path12"
       style="fill:#111111;fill-opacity:1;fill-rule:nonzero;stroke:none"
       d="m 330.301,23.239 h 19.104 v 19.068 h -19.104 z m -9.174,-2.141 v 23.311 h 7.079 v 7.075 h 21.199 v 14.102 h 9.173 v -51.45 h -30.38 v 6.962 z" /><path
       id="path14"
       style="fill:#111111;fill-opacity:1;fill-rule:nonzero;stroke:none"
       d="m 376.22,14.136 h -9.174 v 37.348 h 9.174 z" /><g
       transform="translate(391.7592,51.4836)"
       id="g16"><path
         id="path18"
         style="fill:#111111;fill-opacity:1;fill-rule:nonzero;stroke:none"
         d="m 0,0 v -7.074 h -7.07 v -23.312 h 7.079 v -6.962 h 21.199 v -4.933 H -0.271 V -51.45 H 30.38 L 30.38,0 Z M 2.103,-9.176 H 21.207 V -28.244 H 2.103 Z" /></g><path
       id="path20"
       style="fill:#111111;fill-opacity:1;fill-rule:nonzero;stroke:none"
       d="m 439.781,14.136 h -9.173 v 37.348 h 9.173 z" /><g
       transform="translate(455.3174,14.1357)"
       id="g22"><path
         id="path24"
         style="fill:#111111;fill-opacity:1;fill-rule:nonzero;stroke:none"
         d="m 0,0 v 28.171 h -7.066 v 9.177 H 0 V 51.451 H 9.171 V 37.348 h 7.073 V 28.171 H 9.171 V 0 Z" /></g><path
       id="path26"
       style="fill:#111111;fill-opacity:1;fill-rule:nonzero;stroke:none"
       d="m 483.552,23.239 h 19.107 v 4.932 h -19.107 z m -2.102,-9.103 v 6.962 h -7.069 v 9.175 h 7.079 v 7.069 h 21.199 v 4.967 h -21.805 v 9.175 h 23.907 v -7.075 h 7.068 V 21.098 h -7.068 v -6.962 z" /><path
       id="path28"
       style="fill:#111111;fill-opacity:1;fill-rule:nonzero;stroke:none"
       d="m 529.474,14.136 h -9.175 v 51.451 h 9.175 z" /><g
       id="g30"><g
         clip-path="url(#clipPath36)"
         id="g32"><g
           transform="translate(5.3184,26.0635)"
           id="g38"><path
             id="path40"
             style="fill:#cc3333;fill-opacity:1;fill-rule:nonzero;stroke:none"
             d="m 0,0 c 3.255,-2.406 6.158,-3.54 8.638,-3.54 2.547,0 3.537,0.708 3.537,2.124 0,1.842 -3.256,2.691 -6.795,4.107 -4.106,1.628 -8.921,4.672 -8.921,10.477 0,6.936 5.664,11.468 14.017,11.468 5.805,0 9.912,-2.338 13.025,-4.673 l -5.379,-7.219 c -2.55,1.839 -5.027,2.973 -7.22,2.973 -2.054,0 -3.116,-0.567 -3.116,-1.982 0,-1.841 3.116,-2.55 6.654,-3.822 4.247,-1.559 9.061,-4.249 9.061,-10.621 0,-6.654 -5.239,-11.751 -15.148,-11.751 -4.532,0 -10.052,1.982 -13.735,4.956 z" /></g><g
           transform="translate(32.6396,63.7236)"
           id="g42"><path
             id="path44"
             style="fill:#cc3333;fill-opacity:1;fill-rule:nonzero;stroke:none"
             d="m 0,0 h 12.177 v -37.234 c 0,-2.407 1.132,-3.116 1.98,-3.116 0.425,0 0.709,0 1.276,0.143 l 1.414,-8.919 C 15.573,-49.692 13.591,-50.12 10.902,-50.12 2.691,-50.12 0,-44.738 0,-36.811 Z" /></g><g
           transform="translate(67.3252,23.374)"
           id="g46"><path
             id="path48"
             style="fill:#cc3333;fill-opacity:1;fill-rule:nonzero;stroke:none"
             d="m 0,0 c 3.68,0 5.097,3.398 5.097,8.778 0,5.379 -1.417,8.777 -5.097,8.777 -3.684,0 -5.098,-3.398 -5.098,-8.777 C -5.098,3.398 -3.684,0 0,0 m 0,27.325 c 9.06,0 17.557,-6.797 17.557,-18.547 C 17.557,-2.972 9.06,-9.769 0,-9.769 c -9.063,0 -17.557,6.797 -17.557,18.547 0,11.75 8.494,18.547 17.557,18.547" /></g><g
           transform="translate(85.8682,49.8486)"
           id="g50"><path
             id="path52"
             style="fill:#cc3333;fill-opacity:1;fill-rule:nonzero;stroke:none"
             d="m 0,0 h 12.176 l 3.821,-15.432 c 0.852,-3.538 1.699,-7.22 2.55,-11.044 h 0.282 c 0.85,3.824 1.699,7.506 2.55,11.044 L 25.201,0 H 36.81 L 25.625,-35.395 H 11.609 Z" /></g><g
           transform="translate(145.752,36.1152)"
           id="g54"><path
             id="path56"
             style="fill:#cc3333;fill-opacity:1;fill-rule:nonzero;stroke:none"
             d="m 0,0 c 0,2.973 -1.132,5.38 -4.813,5.38 -2.69,0 -4.956,-1.485 -5.665,-5.38 z m -5.097,14.583 c 10.478,0 15.432,-7.645 15.432,-17.13 0,-2.124 -0.283,-3.964 -0.493,-4.814 h -20.177 c 1.133,-4.531 4.248,-5.948 8.211,-5.948 2.409,0 4.673,0.709 7.222,2.125 l 3.964,-7.219 c -3.824,-2.691 -8.919,-4.108 -12.883,-4.108 -10.337,0 -18.266,6.798 -18.266,18.548 0,11.468 8.355,18.546 16.99,18.546" /></g><g
           transform="translate(160.332,49.8486)"
           id="g58"><path
             id="path60"
             style="fill:#cc3333;fill-opacity:1;fill-rule:nonzero;stroke:none"
             d="m 0,0 h 9.909 l 0.85,-4.248 h 0.283 c 2.833,2.691 6.37,5.097 11.186,5.097 7.785,0 11.043,-5.661 11.043,-14.44 V -35.395 H 21.094 v 20.248 c 0,4.53 -1.132,5.661 -3.537,5.661 -2.266,0 -3.541,-0.99 -5.382,-2.689 v -23.22 l -12.175,0 z" /></g><g
           transform="translate(201.9521,26.0635)"
           id="g62"><path
             id="path64"
             style="fill:#cc3333;fill-opacity:1;fill-rule:nonzero;stroke:none"
             d="m 0,0 c 3.256,-2.406 6.158,-3.54 8.637,-3.54 2.547,0 3.537,0.708 3.537,2.124 0,1.842 -3.255,2.691 -6.794,4.107 -4.106,1.628 -8.921,4.672 -8.921,10.477 0,6.936 5.665,11.468 14.017,11.468 5.805,0 9.912,-2.338 13.025,-4.673 l -5.38,-7.219 c -2.549,1.839 -5.024,2.973 -7.221,2.973 -2.052,0 -3.113,-0.567 -3.113,-1.982 0,-1.841 3.113,-2.55 6.654,-3.822 4.246,-1.559 9.06,-4.249 9.06,-10.621 0,-6.654 -5.237,-11.751 -15.148,-11.751 -4.532,0 -10.052,1.982 -13.734,4.956 z" /></g><g
           transform="translate(229.2744,63.7236)"
           id="g66"><path
             id="path68"
             style="fill:#cc3333;fill-opacity:1;fill-rule:nonzero;stroke:none"
             d="m 0,0 h 11.891 v -26.192 h 0.283 l 9.77,12.317 H 35.109 L 22.51,-28.599 35.818,-49.269 H 22.653 l -7.081,12.601 -3.681,-4.105 v -8.496 l -11.891,0 z" /></g><g
           transform="translate(280.2383,23.374)"
           id="g70"><path
             id="path72"
             style="fill:#cc3333;fill-opacity:1;fill-rule:nonzero;stroke:none"
             d="m 0,0 c 3.682,0 5.097,3.398 5.097,8.778 0,5.379 -1.415,8.777 -5.097,8.777 -3.681,0 -5.097,-3.398 -5.097,-8.777 C -5.097,3.398 -3.681,0 0,0 m 0,27.325 c 9.062,0 17.557,-6.797 17.557,-18.547 0,-11.75 -8.495,-18.547 -17.557,-18.547 -9.06,0 -17.555,6.797 -17.555,18.547 0,11.75 8.495,18.547 17.555,18.547" /></g><path
           id="path74"
           style="fill:#3a67e8;fill-opacity:1;fill-rule:nonzero;stroke:none"
           d="m 314.737,14.064 h -9.174 v 9.175 h 9.174 z" /><path
           id="path76"
           style="fill:#3a67e8;fill-opacity:1;fill-rule:nonzero;stroke:none"
           d="M 376.274,56.79 H 367.1 v 9.175 h 9.174 z" /><path
           id="path78"
           style="fill:#3a67e8;fill-opacity:1;fill-rule:nonzero;stroke:none"
           d="m 439.405,56.79 h -9.173 v 9.175 h 9.173 z" /></g></g></g></svg>